<svg height="512pt" viewBox="-79 0 512 512" width="512pt" xmlns="http://www.w3.org/2000/svg"><path d="m353.101562 485.515625h-353.101562v-485.515625h273.65625l79.445312 79.449219zm0 0" fill="#e3e4d8"/><path d="m273.65625 0v79.449219h79.445312zm0 0" fill="#d0cebd"/><path d="m0 353.101562h353.101562v158.898438h-353.101562zm0 0" fill="#2c81e4"/><g fill="#fff"><path d="m308.964844 485.515625h-35.230469c-14.644531 0-26.5625-11.914063-26.5625-26.5625v-52.804687c0-14.644532 11.917969-26.5625 26.5625-26.5625h35.230469c4.875 0 8.828125 3.953124 8.828125 8.828124 0 4.871094-3.953125 8.828126-8.828125 8.828126h-35.230469c-4.917969 0-8.90625 4-8.90625 8.90625v52.804687c0 4.910156 3.988281 8.910156 8.90625 8.910156h35.230469c4.875 0 8.828125 3.953125 8.828125 8.828125 0 4.871094-3.953125 8.824219-8.828125 8.824219zm0 0"/><path d="m70.621094 485.515625h-8.828125c-4.871094 0-8.828125-3.953125-8.828125-8.824219v-88.277344c0-4.875 3.957031-8.828124 8.828125-8.828124h8.828125c29.203125 0 52.964844 23.753906 52.964844 52.964843 0 29.210938-23.761719 52.964844-52.964844 52.964844zm0-17.652344h.085937zm0-70.621093v70.621093c19.472656 0 35.308594-15.839843 35.308594-35.3125 0-19.472656-15.835938-35.308593-35.308594-35.308593zm0 0"/><path d="m194.207031 485.515625h-17.65625c-14.601562 0-26.480469-11.878906-26.480469-26.480469v-52.964844c0-14.601562 11.871094-26.484374 26.480469-26.484374h17.65625c14.601563 0 26.484375 11.882812 26.484375 26.484374v52.964844c0 14.601563-11.875 26.480469-26.484375 26.480469zm-17.65625-88.273437c-4.863281 0-8.828125 3.953124-8.828125 8.828124v52.964844c0 4.863282 3.957032 8.828125 8.828125 8.828125h17.65625c4.863281 0 8.828125-3.957031 8.828125-8.828125v-52.964844c0-4.867187-3.957031-8.828124-8.828125-8.828124zm0 0"/></g><path d="m132.414062 308.964844h-70.621093c-4.871094 0-8.828125-3.953125-8.828125-8.828125 0-4.871094 3.957031-8.828125 8.828125-8.828125h70.621093c4.871094 0 8.828126 3.957031 8.828126 8.828125 0 4.875-3.957032 8.828125-8.828126 8.828125zm0 0" fill="#d794fa"/><path d="m256 308.964844h-88.277344c-4.871094 0-8.824218-3.953125-8.824218-8.828125 0-4.871094 3.953124-8.828125 8.824218-8.828125h88.277344c4.871094 0 8.828125 3.957031 8.828125 8.828125 0 4.875-3.957031 8.828125-8.828125 8.828125zm0 0" fill="#82c288"/><path d="m308.964844 308.964844h-17.65625c-4.871094 0-8.824219-3.953125-8.824219-8.828125 0-4.871094 3.953125-8.828125 8.824219-8.828125h17.65625c4.875 0 8.828125 3.957031 8.828125 8.828125 0 4.875-3.953125 8.828125-8.828125 8.828125zm0 0" fill="#f28793"/><path d="m62.058594 211.863281h52.964844v52.964844h-52.964844zm0 0" fill="#eacd3b"/><path d="m62.058594 123.585938h247.171875v52.964843h-247.171875zm0 0" fill="#b53438"/><path d="m256.265625 211.863281h52.964844v52.964844h-52.964844zm0 0" fill="#82619a"/><path d="m159.160156 211.863281h52.964844v52.964844h-52.964844zm0 0" fill="#d36a0a"/></svg>