<svg height="512pt" viewBox="-79 0 512 512" width="512pt" xmlns="http://www.w3.org/2000/svg"><path d="m353.101562 485.515625h-353.101562v-485.515625h273.65625l79.445312 79.449219zm0 0" fill="#e3e4d8"/><path d="m291.308594 167.722656h-97.101563c-4.871093 0-8.828125-3.953125-8.828125-8.824218 0-4.875 3.957032-8.828126 8.828125-8.828126h97.101563c4.875 0 8.828125 3.953126 8.828125 8.828126 0 4.871093-3.953125 8.824218-8.828125 8.824218zm0 0" fill="#cdc8bf"/><path d="m158.898438 167.722656h-97.105469c-4.871094 0-8.828125-3.953125-8.828125-8.824218 0-4.875 3.957031-8.828126 8.828125-8.828126h97.105469c4.871093 0 8.824218 3.953126 8.824218 8.828126 0 4.871093-3.953125 8.824218-8.824218 8.824218zm0 0" fill="#cdc8bf"/><path d="m273.65625 247.171875c-4.875 0-8.828125-3.953125-8.828125-8.828125 0-38.9375-31.683594-70.621094-70.621094-70.621094-4.871093 0-8.828125-3.953125-8.828125-8.824218 0-4.875 3.957032-8.828126 8.828125-8.828126 48.675781 0 88.277344 39.597657 88.277344 88.273438 0 4.875-3.957031 8.828125-8.828125 8.828125zm0 0" fill="#cdc8bf"/><path d="m79.449219 247.171875c-4.875 0-8.828125-3.953125-8.828125-8.828125 0-48.675781 39.601562-88.273438 88.277344-88.273438 4.871093 0 8.824218 3.953126 8.824218 8.828126 0 4.871093-3.953125 8.824218-8.824218 8.824218-38.941407 0-70.621094 31.683594-70.621094 70.621094 0 4.875-3.957032 8.828125-8.828125 8.828125zm0 0" fill="#cdc8bf"/><path d="m273.65625 0v79.449219h79.445312zm0 0" fill="#d0cebd"/><path d="m0 353.101562h353.101562v158.898438h-353.101562zm0 0" fill="#571d32"/><path d="m158.898438 141.242188h35.308593v35.308593h-35.308593zm0 0" fill="#563c09"/><path d="m256 238.34375h35.308594v35.3125h-35.308594zm0 0" fill="#563c09"/><path d="m97.101562 273.65625h-35.308593v-35.3125h35.308593zm0 0" fill="#563c09"/><g fill="#fff"><path d="m278.070312 485.515625h-30.898437c-4.871094 0-8.828125-3.953125-8.828125-8.824219 0-4.875 3.957031-8.828125 8.828125-8.828125h30.898437c7.300782 0 13.238282-5.941406 13.238282-13.242187 0-7.300782-5.9375-13.242188-13.238282-13.242188h-8.828124c-17.039063 0-30.898438-13.859375-30.898438-30.894531 0-17.039063 13.859375-30.898437 30.898438-30.898437h30.894531c4.875 0 8.828125 3.953124 8.828125 8.828124 0 4.871094-3.953125 8.828126-8.828125 8.828126h-30.894531c-7.300782 0-13.242188 5.941406-13.242188 13.242187 0 7.296875 5.941406 13.238281 13.242188 13.238281h8.828124c17.035157 0 30.894532 13.859375 30.894532 30.898438 0 17.035156-13.859375 30.894531-30.894532 30.894531zm0 0"/><path d="m105.929688 441.378906h-52.964844c-4.871094 0-8.828125-3.953125-8.828125-8.828125v-44.136719c0-4.875 3.957031-8.828124 8.828125-8.828124h52.964844c4.875 0 8.828124 3.953124 8.828124 8.828124 0 4.871094-3.953124 8.828126-8.828124 8.828126h-44.136719v26.480468h44.136719c4.875 0 8.828124 3.957032 8.828124 8.828125 0 4.875-3.953124 8.828125-8.828124 8.828125zm0 0"/><path d="m105.929688 485.515625h-52.964844c-4.871094 0-8.828125-3.953125-8.828125-8.824219v-44.140625c0-4.871093 3.957031-8.828125 8.828125-8.828125h52.964844c4.875 0 8.828124 3.957032 8.828124 8.828125 0 4.875-3.953124 8.828125-8.828124 8.828125h-44.136719v26.484375h44.136719c4.875 0 8.828124 3.953125 8.828124 8.828125 0 4.871094-3.953124 8.824219-8.828124 8.824219zm0 0"/><path d="m150.070312 485.515625c-4.875 0-8.828124-3.953125-8.828124-8.824219v-88.277344c0-4.875 3.953124-8.828124 8.828124-8.828124 4.871094 0 8.828126 3.953124 8.828126 8.828124v88.277344c0 4.871094-3.957032 8.824219-8.828126 8.824219zm0 0"/><path d="m176.550781 450.207031h-26.480469c-4.875 0-8.828124-3.953125-8.828124-8.828125v-52.964844c0-4.875 3.953124-8.828124 8.828124-8.828124h26.480469c19.472657 0 35.3125 15.835937 35.3125 35.3125 0 19.472656-15.839843 35.308593-35.3125 35.308593zm-17.652343-17.65625h17.652343c9.738281 0 17.65625-7.917969 17.65625-17.652343 0-9.738282-7.917969-17.65625-17.65625-17.65625h-17.652343zm0 0"/></g></svg>