<svg height="512pt" viewBox="-79 0 512 512" width="512pt" xmlns="http://www.w3.org/2000/svg"><path d="m353.101562 485.515625h-353.101562v-485.515625h273.65625l79.445312 79.449219zm0 0" fill="#e3e4d8"/><path d="m176.550781 79.449219s-11.5625 45.355469-52.964843 97.101562l17.65625 61.792969h70.621093l17.652344-61.792969c-41.398437-51.746093-52.964844-97.101562-52.964844-97.101562zm0 0" fill="#f6b700"/><path d="m273.65625 0v79.449219h79.445312zm0 0" fill="#d0cebd"/><path d="m0 353.101562h353.101562v158.898438h-353.101562zm0 0" fill="#e48a00"/><path d="m132.414062 264.828125h88.277344v44.136719h-88.277344zm0 0" fill="#9884b7"/><g fill="#fff"><path d="m150.070312 485.515625c-4.875 0-8.828124-3.953125-8.828124-8.824219v-77.429687c0-1.109375-.910157-2.019531-2.023438-2.019531h-31.265625c-1.113281 0-2.023437.910156-2.023437 2.019531v77.429687c0 4.871094-3.953126 8.824219-8.828126 8.824219-4.871093 0-8.824218-3.953125-8.824218-8.824219v-77.429687c0-10.847657 8.824218-19.675781 19.675781-19.675781h31.265625c10.851562 0 19.679688 8.828124 19.679688 19.675781v77.429687c0 4.871094-3.957032 8.824219-8.828126 8.824219zm0 0"/><path d="m150.070312 441.378906h-52.96875c-4.871093 0-8.824218-3.953125-8.824218-8.828125 0-4.871093 3.953125-8.828125 8.824218-8.828125h52.96875c4.871094 0 8.828126 3.957032 8.828126 8.828125 0 4.875-3.957032 8.828125-8.828126 8.828125zm0 0"/><path d="m229.515625 485.515625c-4.871094 0-8.824219-3.953125-8.824219-8.824219v-88.277344c0-4.875 3.953125-8.828124 8.824219-8.828124 4.875 0 8.828125 3.953124 8.828125 8.828124v88.277344c0 4.871094-3.953125 8.824219-8.828125 8.824219zm0 0"/><path d="m256 485.515625h-52.964844c-4.875 0-8.828125-3.953125-8.828125-8.824219 0-4.875 3.953125-8.828125 8.828125-8.828125h52.964844c4.871094 0 8.828125 3.953125 8.828125 8.828125 0 4.871094-3.957031 8.824219-8.828125 8.824219zm0 0"/><path d="m256 397.242188h-52.964844c-4.875 0-8.828125-3.957032-8.828125-8.828126 0-4.875 3.953125-8.828124 8.828125-8.828124h52.964844c4.871094 0 8.828125 3.953124 8.828125 8.828124 0 4.871094-3.957031 8.828126-8.828125 8.828126zm0 0"/></g><path d="m220.691406 273.65625h-88.277344c-9.753906 0-17.65625-7.902344-17.65625-17.65625s7.902344-17.65625 17.65625-17.65625h88.277344c9.753906 0 17.652344 7.902344 17.652344 17.65625s-7.898438 17.65625-17.652344 17.65625zm0 0" fill="#684f89"/><path d="m176.550781 79.449219s-2.398437 9.328125-8.828125 24.273437v81.65625c0 4.875 3.957032 8.828125 8.828125 8.828125 4.875 0 8.828125-3.953125 8.828125-8.828125v-81.65625c-6.417968-14.945312-8.828125-24.273437-8.828125-24.273437zm0 0" fill="#fd8"/></svg>