<svg height="512pt" viewBox="-79 0 512 512" width="512pt" xmlns="http://www.w3.org/2000/svg"><path d="m353.101562 485.515625h-353.101562v-485.515625h273.65625l79.445312 79.449219zm0 0" fill="#e3e4d8"/><path d="m273.65625 0v79.449219h79.445312zm0 0" fill="#d0cebd"/><path d="m0 353.101562h353.101562v158.898438h-353.101562zm0 0" fill="#f6b700"/><g fill="#fff"><path d="m300.136719 485.515625c-4.871094 0-8.828125-3.953125-8.828125-8.824219v-77.429687c0-1.109375-.90625-2.019531-2.019532-2.019531h-31.265624c-1.113282 0-2.023438.910156-2.023438 2.019531v77.429687c0 4.871094-3.953125 8.824219-8.828125 8.824219-4.871094 0-8.828125-3.953125-8.828125-8.824219v-77.429687c0-10.847657 8.828125-19.675781 19.679688-19.675781h31.265624c10.847657 0 19.675782 8.828124 19.675782 19.675781v77.429687c0 4.871094-3.953125 8.824219-8.828125 8.824219zm0 0"/><path d="m300.136719 441.378906h-52.964844c-4.871094 0-8.828125-3.953125-8.828125-8.828125 0-4.871093 3.957031-8.828125 8.828125-8.828125h52.964844c4.875 0 8.828125 3.957032 8.828125 8.828125 0 4.875-3.953125 8.828125-8.828125 8.828125zm0 0"/><path d="m105.929688 397.242188h-52.964844c-4.871094 0-8.828125-3.957032-8.828125-8.828126 0-4.875 3.957031-8.828124 8.828125-8.828124h52.964844c4.875 0 8.828124 3.953124 8.828124 8.828124 0 4.871094-3.953124 8.828126-8.828124 8.828126zm0 0"/><path d="m105.929688 441.378906h-52.964844c-4.871094 0-8.828125-3.953125-8.828125-8.828125 0-4.871093 3.957031-8.828125 8.828125-8.828125h52.964844c4.875 0 8.828124 3.957032 8.828124 8.828125 0 4.875-3.953124 8.828125-8.828124 8.828125zm0 0"/><path d="m52.964844 485.515625c-4.871094 0-8.828125-3.953125-8.828125-8.824219v-88.277344c0-4.875 3.957031-8.828124 8.828125-8.828124 4.875 0 8.828125 3.953124 8.828125 8.828124v88.277344c0 4.871094-3.953125 8.824219-8.828125 8.824219zm0 0"/><path d="m203.035156 485.515625h-52.964844c-4.875 0-8.828124-3.953125-8.828124-8.824219 0-4.875 3.953124-8.828125 8.828124-8.828125h52.964844c4.871094 0 8.828125 3.953125 8.828125 8.828125 0 4.871094-3.957031 8.824219-8.828125 8.824219zm0 0"/><path d="m150.070312 485.515625c-4.875 0-8.828124-3.953125-8.828124-8.824219v-88.277344c0-4.875 3.953124-8.828124 8.828124-8.828124 4.871094 0 8.828126 3.953124 8.828126 8.828124v88.277344c0 4.871094-3.957032 8.824219-8.828126 8.824219zm0 0"/></g><path d="m220.691406 270.714844c-16.304687 17.445312-37.835937 29.421875-63.753906 29.421875-49.292969 0-86.316406-39.519531-86.316406-88.273438 0-48.757812 37.023437-88.277343 86.316406-88.277343 24.972656 0 47.554688 13.074218 63.753906 29.421874l-61.792968 58.855469zm0 0" fill="#f6b700"/><path d="m229.515625 220.691406h-17.652344c-4.875 0-8.828125-3.957031-8.828125-8.828125 0-4.875 3.953125-8.828125 8.828125-8.828125h17.652344c4.875 0 8.828125 3.953125 8.828125 8.828125 0 4.871094-3.953125 8.828125-8.828125 8.828125zm0 0" fill="#a09893"/><path d="m282.484375 220.691406h-17.65625c-4.875 0-8.828125-3.957031-8.828125-8.828125 0-4.875 3.953125-8.828125 8.828125-8.828125h17.65625c4.871094 0 8.824219 3.953125 8.824219 8.828125 0 4.871094-3.953125 8.828125-8.824219 8.828125zm0 0" fill="#a09893"/><path d="m141.242188 176.550781h-17.65625c-4.871094 0-8.828126-3.953125-8.828126-8.828125 0-4.871094 3.957032-8.824218 8.828126-8.824218h17.65625c4.871093 0 8.828124 3.953124 8.828124 8.824218 0 4.875-3.957031 8.828125-8.828124 8.828125zm0 0" fill="#fff"/></svg>