<svg height="512pt" viewBox="-79 0 512 512" width="512pt" xmlns="http://www.w3.org/2000/svg"><path d="m353.101562 485.515625h-353.101562v-485.515625h273.65625l79.445312 79.449219zm0 0" fill="#e3e4d8"/><path d="m274.617188 113.839844c-7.160157-7.160156-18.636719-7.574219-26.207032-.855469-33.503906 29.730469-73.851562 69.527344-119.34375 122.007813l24.355469 24.351562c58.597656-50.78125 101.976563-96.878906 121.964844-119.207031 6.761719-7.5625 6.40625-19.109375-.769531-26.296875zm0 0" fill="#684f89"/><path d="m273.65625 0v79.449219h79.445312zm0 0" fill="#d0cebd"/><path d="m0 353.101562h353.101562v158.898438h-353.101562zm0 0" fill="#4e74ba"/><g fill="#fff"><path d="m52.964844 485.515625c-4.871094 0-8.828125-3.953125-8.828125-8.824219v-88.277344c0-4.875 3.957031-8.828124 8.828125-8.828124 4.875 0 8.828125 3.953124 8.828125 8.828124v88.277344c0 4.871094-3.953125 8.824219-8.828125 8.824219zm0 0"/><path d="m79.449219 450.207031h-26.484375c-4.871094 0-8.828125-3.953125-8.828125-8.828125v-52.964844c0-4.875 3.957031-8.828124 8.828125-8.828124h26.484375c19.472656 0 35.308593 15.835937 35.308593 35.3125 0 19.472656-15.835937 35.308593-35.308593 35.308593zm-17.65625-17.65625h17.65625c9.734375 0 17.652343-7.917969 17.652343-17.652343 0-9.738282-7.917968-17.65625-17.652343-17.65625h-17.65625zm0 0"/><path d="m256 485.515625h-8.828125c-4.871094 0-8.828125-3.953125-8.828125-8.824219v-88.277344c0-4.875 3.957031-8.828124 8.828125-8.828124h8.828125c29.203125 0 52.964844 23.753906 52.964844 52.964843 0 29.210938-23.761719 52.964844-52.964844 52.964844zm0-17.652344h.089844zm0-70.621093v70.621093c19.472656 0 35.308594-15.839843 35.308594-35.3125 0-19.472656-15.835938-35.308593-35.308594-35.308593zm0 0"/><path d="m180.964844 485.515625h-30.894532c-4.875 0-8.828124-3.953125-8.828124-8.824219 0-4.875 3.953124-8.828125 8.828124-8.828125h30.894532c7.300781 0 13.242187-5.941406 13.242187-13.242187 0-7.300782-5.941406-13.242188-13.242187-13.242188h-8.828125c-17.035157 0-30.894531-13.859375-30.894531-30.894531 0-17.039063 13.859374-30.898437 30.894531-30.898437h30.898437c4.871094 0 8.828125 3.953124 8.828125 8.828124 0 4.871094-3.957031 8.828126-8.828125 8.828126h-30.898437c-7.300781 0-13.238281 5.941406-13.238281 13.242187 0 7.296875 5.9375 13.238281 13.238281 13.238281h8.828125c17.039062 0 30.898437 13.859375 30.898437 30.898438 0 17.035156-13.859375 30.894531-30.898437 30.894531zm0 0"/></g><path d="m129.066406 235c-9.355468 3.203125-18.878906 11.898438-30.867187 25.484375-28.0625 31.789063-27.578125 57.308594-27.578125 57.308594s25.617187.582031 57.40625-27.480469c13.585937-11.988281 22.21875-21.574219 25.386718-30.96875zm0 0" fill="#efbb48"/><path d="m181.761719 177.25 29.402343 29.402344c9.816407-9.445313 19.058594-18.605469 27.683594-27.417969l-29.660156-29.660156c-8.808594 8.617187-17.972656 17.859375-27.425781 27.675781zm0 0" fill="#443260"/></svg>