<svg height="512pt" viewBox="-79 0 512 512" width="512pt" xmlns="http://www.w3.org/2000/svg"><path d="m353.101562 485.515625h-353.101562v-485.515625h273.65625l79.445312 79.449219zm0 0" fill="#e3e4d8"/><path d="m273.65625 0v79.449219h79.445312zm0 0" fill="#d0cebd"/><path d="m0 353.101562h353.101562v158.898438h-353.101562zm0 0" fill="#879695"/><g fill="#a09893"><path d="m185.378906 203.035156h-17.65625c-14.597656 0-26.480468-11.882812-26.480468-26.484375v-44.136719c0-14.601562 11.871093-26.484374 26.480468-26.484374h17.65625c14.601563 0 26.484375 11.882812 26.484375 26.484374v44.136719c0 14.601563-11.875 26.484375-26.484375 26.484375zm-17.65625-79.449218c-4.863281 0-8.824218 3.953124-8.824218 8.828124v44.136719c0 4.863281 3.953124 8.828125 8.824218 8.828125h17.65625c4.863282 0 8.828125-3.953125 8.828125-8.828125v-44.136719c0-4.863281-3.953125-8.828124-8.828125-8.828124zm0 0"/><path d="m247.171875 150.070312c-2.257813 0-4.519531-.867187-6.242187-2.585937-3.449219-3.453125-3.449219-9.03125 0-12.484375l26.484374-26.484375c3.441407-3.449219 9.039063-3.449219 12.480469 0 3.453125 3.453125 3.453125 9.03125 0 12.484375l-26.480469 26.484375c-1.722656 1.71875-3.980468 2.585937-6.242187 2.585937zm0 0"/><path d="m273.65625 203.035156c-4.875 0-8.828125-3.957031-8.828125-8.828125v-79.449219c0-4.871093 3.953125-8.828124 8.828125-8.828124 4.871094 0 8.828125 3.957031 8.828125 8.828124v79.449219c0 4.871094-3.957031 8.828125-8.828125 8.828125zm0 0"/><path d="m291.308594 203.035156h-35.308594c-4.871094 0-8.828125-3.957031-8.828125-8.828125 0-4.871093 3.957031-8.828125 8.828125-8.828125h35.308594c4.875 0 8.828125 3.957032 8.828125 8.828125 0 4.871094-3.953125 8.828125-8.828125 8.828125zm0 0"/><path d="m97.101562 203.035156h-35.308593c-4.871094 0-8.828125-3.957031-8.828125-8.828125 0-4.871093 3.957031-8.828125 8.828125-8.828125h35.308593c4.875 0 8.828126 3.957032 8.828126 8.828125 0 4.871094-3.953126 8.828125-8.828126 8.828125zm0 0"/><path d="m52.964844 150.070312c-2.257813 0-4.519532-.867187-6.242188-2.585937-3.449218-3.453125-3.449218-9.03125 0-12.484375l26.484375-26.484375c3.441407-3.449219 9.039063-3.449219 12.480469 0 3.453125 3.453125 3.453125 9.03125 0 12.484375l-26.480469 26.484375c-1.722656 1.71875-3.980469 2.585937-6.242187 2.585937zm0 0"/><path d="m79.449219 203.035156c-4.875 0-8.828125-3.957031-8.828125-8.828125v-79.449219c0-4.871093 3.953125-8.828124 8.828125-8.828124 4.871093 0 8.828125 3.957031 8.828125 8.828124v79.449219c0 4.871094-3.957032 8.828125-8.828125 8.828125zm0 0"/><path d="m185.378906 326.621094h-17.65625c-14.597656 0-26.480468-11.882813-26.480468-26.484375v-44.136719c0-14.601562 11.871093-26.484375 26.480468-26.484375h17.65625c14.601563 0 26.484375 11.882813 26.484375 26.484375v44.136719c0 14.601562-11.875 26.484375-26.484375 26.484375zm-17.65625-79.449219c-4.863281 0-8.824218 3.957031-8.824218 8.828125v44.136719c0 4.863281 3.953124 8.828125 8.824218 8.828125h17.65625c4.863282 0 8.828125-3.953125 8.828125-8.828125v-44.136719c0-4.863281-3.953125-8.828125-8.828125-8.828125zm0 0"/><path d="m247.171875 273.65625c-2.257813 0-4.519531-.867188-6.242187-2.585938-3.449219-3.453124-3.449219-9.03125 0-12.484374l26.484374-26.480469c3.441407-3.453125 9.039063-3.453125 12.480469 0 3.453125 3.449219 3.453125 9.027343 0 12.480469l-26.480469 26.484374c-1.722656 1.71875-3.980468 2.585938-6.242187 2.585938zm0 0"/><path d="m273.65625 326.621094c-4.875 0-8.828125-3.957032-8.828125-8.828125v-79.449219c0-4.871094 3.953125-8.828125 8.828125-8.828125 4.871094 0 8.828125 3.957031 8.828125 8.828125v79.449219c0 4.871093-3.957031 8.828125-8.828125 8.828125zm0 0"/><path d="m291.308594 326.621094h-35.308594c-4.871094 0-8.828125-3.957032-8.828125-8.828125 0-4.871094 3.957031-8.828125 8.828125-8.828125h35.308594c4.875 0 8.828125 3.957031 8.828125 8.828125 0 4.871093-3.953125 8.828125-8.828125 8.828125zm0 0"/><path d="m88.277344 326.621094h-17.65625c-14.601563 0-26.484375-11.882813-26.484375-26.484375v-44.136719c0-14.601562 11.875-26.484375 26.484375-26.484375h17.65625c14.597656 0 26.480468 11.882813 26.480468 26.484375v44.136719c0 14.601562-11.871093 26.484375-26.480468 26.484375zm-17.65625-79.449219c-4.863282 0-8.828125 3.957031-8.828125 8.828125v44.136719c0 4.863281 3.953125 8.828125 8.828125 8.828125h17.65625c4.863281 0 8.824218-3.953125 8.824218-8.828125v-44.136719c0-4.863281-3.953124-8.828125-8.824218-8.828125zm0 0"/></g><path d="m83.863281 441.378906h-30.898437c-4.871094 0-8.828125-3.953125-8.828125-8.828125v-44.136719c0-4.875 3.957031-8.828124 8.828125-8.828124h30.898437c17.035157 0 30.894531 13.859374 30.894531 30.898437 0 17.035156-13.859374 30.894531-30.894531 30.894531zm-22.070312-17.65625h22.070312c7.300781 0 13.238281-5.941406 13.238281-13.238281 0-7.300781-5.9375-13.242187-13.238281-13.242187h-22.070312zm0 0" fill="#fff"/><path d="m83.863281 485.515625h-30.898437c-4.871094 0-8.828125-3.953125-8.828125-8.824219v-44.140625c0-4.871093 3.957031-8.828125 8.828125-8.828125h30.898437c17.035157 0 30.894531 13.859375 30.894531 30.898438 0 17.035156-13.859374 30.894531-30.894531 30.894531zm-22.070312-17.652344h22.070312c7.300781 0 13.238281-5.941406 13.238281-13.242187 0-7.300782-5.9375-13.242188-13.238281-13.242188h-22.070312zm0 0" fill="#fff"/><path d="m203.035156 397.242188h-52.964844c-4.875 0-8.828124-3.957032-8.828124-8.828126 0-4.875 3.953124-8.828124 8.828124-8.828124h52.964844c4.871094 0 8.828125 3.953124 8.828125 8.828124 0 4.871094-3.957031 8.828126-8.828125 8.828126zm0 0" fill="#fff"/><path d="m203.035156 485.515625h-52.964844c-4.875 0-8.828124-3.953125-8.828124-8.824219 0-4.875 3.953124-8.828125 8.828124-8.828125h52.964844c4.871094 0 8.828125 3.953125 8.828125 8.828125 0 4.871094-3.957031 8.824219-8.828125 8.824219zm0 0" fill="#fff"/><path d="m176.550781 485.515625c-4.871093 0-8.828125-3.953125-8.828125-8.824219v-88.277344c0-4.875 3.957032-8.828124 8.828125-8.828124 4.875 0 8.828125 3.953124 8.828125 8.828124v88.277344c0 4.871094-3.953125 8.824219-8.828125 8.824219zm0 0" fill="#fff"/><path d="m300.136719 485.515625c-3.042969 0-5.949219-1.578125-7.5625-4.28125l-36.574219-60.953125v56.410156c0 4.871094-3.953125 8.824219-8.828125 8.824219-4.871094 0-8.828125-3.953125-8.828125-8.824219v-88.277344c0-3.972656 2.648438-7.449218 6.472656-8.511718 3.820313-1.046875 7.882813.566406 9.921875 3.964844l36.570313 60.953124v-56.40625c0-4.875 3.957031-8.828124 8.828125-8.828124 4.875 0 8.828125 3.953124 8.828125 8.828124v88.277344c0 3.96875-2.648438 7.449219-6.46875 8.507813-.785156.210937-1.574219.316406-2.359375.316406zm0 0" fill="#fff"/></svg>