<svg height="512pt" viewBox="-79 0 512 512" width="512pt" xmlns="http://www.w3.org/2000/svg"><path d="m353.101562 485.515625h-353.101562v-485.515625h273.65625l79.445312 79.449219zm0 0" fill="#e3e4d8"/><path d="m273.65625 0v79.449219h79.445312zm0 0" fill="#d0cebd"/><path d="m0 353.101562h353.101562v158.898438h-353.101562zm0 0" fill="#b53438"/><g fill="#fff"><path d="m79.449219 485.515625c-19.472657 0-35.3125-15.835937-35.3125-35.308594 0-4.882812 3.957031-8.828125 8.828125-8.828125 4.875 0 8.828125 3.945313 8.828125 8.828125 0 9.738281 7.917969 17.65625 17.65625 17.65625 9.734375 0 17.652343-7.917969 17.652343-17.65625v-61.792969c0-4.882812 3.957032-8.828124 8.828126-8.828124 4.875 0 8.828124 3.945312 8.828124 8.828124v61.792969c0 19.472657-15.835937 35.308594-35.308593 35.308594zm0 0"/><path d="m203.035156 485.515625c-4.875 0-8.828125-3.945313-8.828125-8.824219v-77.429687c0-1.109375-.910156-2.019531-2.023437-2.019531h-31.265625c-1.113281 0-2.019531.910156-2.019531 2.019531v77.429687c0 4.878906-3.957032 8.824219-8.828126 8.824219-4.875 0-8.828124-3.945313-8.828124-8.824219v-77.429687c0-10.847657 8.828124-19.675781 19.675781-19.675781h31.265625c10.851562 0 19.679687 8.828124 19.679687 19.675781v77.429687c0 4.878906-3.957031 8.824219-8.828125 8.824219zm0 0"/><path d="m203.035156 441.378906h-52.964844c-4.875 0-8.828124-3.945312-8.828124-8.828125 0-4.878906 3.953124-8.828125 8.828124-8.828125h52.964844c4.871094 0 8.828125 3.949219 8.828125 8.828125 0 4.882813-3.957031 8.828125-8.828125 8.828125zm0 0"/><path d="m247.171875 485.515625c-4.871094 0-8.828125-3.945313-8.828125-8.824219v-88.277344c0-4.882812 3.957031-8.828124 8.828125-8.828124 4.875 0 8.828125 3.945312 8.828125 8.828124v88.277344c0 4.878906-3.953125 8.824219-8.828125 8.824219zm0 0"/><path d="m273.65625 450.207031h-26.484375c-4.871094 0-8.828125-3.945312-8.828125-8.828125v-52.964844c0-4.882812 3.957031-8.828124 8.828125-8.828124h26.484375c19.472656 0 35.308594 15.835937 35.308594 35.3125 0 19.472656-15.835938 35.308593-35.308594 35.308593zm-17.65625-17.65625h17.65625c9.734375 0 17.652344-7.917969 17.652344-17.652343 0-9.738282-7.917969-17.65625-17.652344-17.65625h-17.65625zm0 0"/><path d="m300.148438 485.515625c-2.683594 0-5.332032-1.214844-7.074219-3.53125l-26.480469-35.308594c-2.921875-3.894531-2.136719-9.429687 1.765625-12.351562 3.902344-2.910157 9.4375-2.132813 12.359375 1.765625l26.480469 35.3125c2.921875 3.890625 2.136719 9.425781-1.765625 12.347656-1.589844 1.195312-3.449219 1.765625-5.285156 1.765625zm0 0"/></g><path d="m231.195312 150.070312v26.480469c0 6.039063-.628906 11.925781-1.679687 17.65625h26.484375c24.371094 0 44.136719-19.765625 44.136719-44.136719zm0 0" fill="#afb6bb"/><path d="m150.070312 273.65625c-53.628906 0-97.105468-43.476562-97.105468-97.105469v-26.480469h194.207031v26.480469c0 53.628907-43.476563 97.105469-97.101563 97.105469zm0 0" fill="#fff"/><path d="m229.515625 282.484375h-158.894531c-4.875 0-8.828125-3.949219-8.828125-8.828125 0-4.882812 3.953125-8.828125 8.828125-8.828125h158.894531c4.875 0 8.828125 3.945313 8.828125 8.828125 0 4.878906-3.953125 8.828125-8.828125 8.828125zm0 0" fill="#afb6bb"/></svg>