<svg height="512pt" viewBox="-79 0 512 512" width="512pt" xmlns="http://www.w3.org/2000/svg"><path d="m353.101562 485.515625h-353.101562v-485.515625h273.65625l79.445312 79.449219zm0 0" fill="#e3e4d8"/><path d="m273.65625 0v79.449219h79.445312zm0 0" fill="#d0cebd"/><path d="m0 353.101562h353.101562v158.898438h-353.101562zm0 0" fill="#82619a"/><path d="m61.792969 114.757812h229.515625v203.035157h-229.515625zm0 0" fill="#fff"/><path d="m211.878906 220.691406h-70.664062c-19.484375 0-35.285156 15.800782-35.285156 35.289063v26.503906h141.242187v-26.503906c0-19.488281-15.800781-35.289063-35.292969-35.289063zm0 0" fill="#5f4575"/><g fill="#fff"><path d="m79.449219 485.515625c-3.613281 0-6.859375-2.195313-8.191407-5.550781l-35.3125-88.277344c-1.808593-4.527344.390626-9.664062 4.917969-11.472656 4.519531-1.8125 9.65625.386718 11.476563 4.925781l27.109375 67.785156 27.117187-67.785156c1.808594-4.539063 6.957032-6.746094 11.476563-4.925781 4.527343 1.808594 6.726562 6.945312 4.917969 11.472656l-35.3125 88.277344c-1.339844 3.355468-4.589844 5.550781-8.199219 5.550781zm0 0"/><path d="m308.964844 397.242188h-52.964844c-4.871094 0-8.828125-3.945313-8.828125-8.828126 0-4.882812 3.957031-8.828124 8.828125-8.828124h52.964844c4.875 0 8.828125 3.945312 8.828125 8.828124 0 4.882813-3.953125 8.828126-8.828125 8.828126zm0 0"/><path d="m308.964844 441.378906h-52.964844c-4.871094 0-8.828125-3.945312-8.828125-8.828125 0-4.878906 3.957031-8.828125 8.828125-8.828125h52.964844c4.875 0 8.828125 3.949219 8.828125 8.828125 0 4.882813-3.953125 8.828125-8.828125 8.828125zm0 0"/><path d="m256 485.515625c-4.871094 0-8.828125-3.945313-8.828125-8.824219v-88.277344c0-4.882812 3.957031-8.828124 8.828125-8.828124s8.828125 3.945312 8.828125 8.828124v88.277344c0 4.878906-3.957031 8.824219-8.828125 8.824219zm0 0"/><path d="m211.863281 485.515625h-35.230469c-14.648437 0-26.5625-11.914063-26.5625-26.5625v-52.804687c0-14.644532 11.914063-26.5625 26.5625-26.5625h35.230469c4.871094 0 8.828125 3.945312 8.828125 8.828124 0 4.882813-3.957031 8.828126-8.828125 8.828126h-35.230469c-4.917968 0-8.910156 3.988281-8.910156 8.90625v52.804687c0 4.917969 3.992188 8.910156 8.910156 8.910156h35.230469c4.871094 0 8.828125 3.945313 8.828125 8.828125 0 4.878906-3.957031 8.824219-8.828125 8.824219zm0 0"/></g><path d="m220.691406 194.207031c0 24.375-19.761718 44.136719-44.140625 44.136719-24.375 0-44.136719-19.761719-44.136719-44.136719s19.761719-44.136719 44.136719-44.136719c24.378907 0 44.140625 19.761719 44.140625 44.136719zm0 0" fill="#82619a"/></svg>