<svg height="512pt" viewBox="-79 0 512 512" width="512pt" xmlns="http://www.w3.org/2000/svg"><path d="m353.101562 485.515625h-353.101562v-485.515625h273.65625l79.445312 79.449219zm0 0" fill="#e3e4d8"/><path d="m273.65625 0v79.449219h79.445312zm0 0" fill="#d0cebd"/><path d="m0 353.101562h353.101562v158.898438h-353.101562zm0 0" fill="#ef394f"/><g fill="#fff"><path d="m273.65625 485.515625c-19.476562 0-35.3125-15.835937-35.3125-35.308594 0-4.882812 3.957031-8.828125 8.828125-8.828125 4.875 0 8.828125 3.945313 8.828125 8.828125 0 9.738281 7.917969 17.65625 17.65625 17.65625 9.734375 0 17.652344-7.917969 17.652344-17.65625v-61.792969c0-4.882812 3.957031-8.828124 8.828125-8.828124 4.875 0 8.828125 3.945312 8.828125 8.828124v61.792969c0 19.472657-15.835938 35.308594-35.308594 35.308594zm0 0"/><path d="m88.277344 485.515625h-17.65625c-14.601563 0-26.484375-11.878906-26.484375-26.480469v-52.964844c0-14.601562 11.875-26.484374 26.484375-26.484374h17.65625c14.597656 0 26.480468 11.882812 26.480468 26.484374v52.964844c0 14.601563-11.871093 26.480469-26.480468 26.480469zm-17.65625-88.273437c-4.863282 0-8.828125 3.953124-8.828125 8.828124v52.964844c0 4.871094 3.953125 8.828125 8.828125 8.828125h17.65625c4.863281 0 8.824218-3.957031 8.824218-8.828125v-52.964844c0-4.875-3.953124-8.828124-8.824218-8.828124zm0 0"/><path d="m180.964844 441.378906h-30.894532c-4.875 0-8.828124-3.945312-8.828124-8.828125v-44.136719c0-4.882812 3.953124-8.828124 8.828124-8.828124h30.894532c17.039062 0 30.898437 13.859374 30.898437 30.898437 0 17.035156-13.859375 30.894531-30.898437 30.894531zm-22.066406-17.65625h22.066406c7.300781 0 13.242187-5.941406 13.242187-13.238281 0-7.300781-5.941406-13.242187-13.242187-13.242187h-22.066406zm0 0"/><path d="m180.964844 485.515625h-30.894532c-4.875 0-8.828124-3.945313-8.828124-8.824219v-44.140625c0-4.878906 3.953124-8.828125 8.828124-8.828125h30.894532c17.039062 0 30.898437 13.859375 30.898437 30.898438 0 17.035156-13.859375 30.894531-30.898437 30.894531zm-22.066406-17.652344h22.066406c7.300781 0 13.242187-5.941406 13.242187-13.242187 0-7.300782-5.941406-13.242188-13.242187-13.242188h-22.066406zm0 0"/></g><path d="m194.207031 167.722656h-52.964843v123.585938h123.585937v-123.585938zm0 0" fill="#988e89"/><path d="m70.621094 97.101562h123.585937v123.589844h-123.585937zm0 0" fill="#b8aca6"/></svg>