<svg height="512pt" viewBox="-79 0 512 512" width="512pt" xmlns="http://www.w3.org/2000/svg"><path d="m353.101562 485.515625h-353.101562v-485.515625h273.65625l79.445312 79.449219zm0 0" fill="#e3e4d8"/><path d="m273.65625 0v79.449219h79.445312zm0 0" fill="#d0cebd"/><path d="m0 353.101562h353.101562v158.898438h-353.101562zm0 0" fill="#87c58c"/><g fill="#fff"><path d="m61.792969 485.515625h-8.828125c-4.871094 0-8.828125-3.945313-8.828125-8.824219v-88.277344c0-4.882812 3.957031-8.828124 8.828125-8.828124h8.828125c29.203125 0 52.964843 23.753906 52.964843 52.964843 0 29.210938-23.761718 52.964844-52.964843 52.964844zm0-17.652344h.089843zm0-70.621093v70.621093c19.472656 0 35.308593-15.839843 35.308593-35.3125 0-19.472656-15.835937-35.308593-35.308593-35.308593zm0 0"/><path d="m203.035156 485.515625h-52.964844c-4.875 0-8.828124-3.945313-8.828124-8.824219v-88.277344c0-4.882812 3.953124-8.828124 8.828124-8.828124 4.871094 0 8.828126 3.945312 8.828126 8.828124v79.449219h44.136718c4.871094 0 8.828125 3.945313 8.828125 8.828125 0 4.878906-3.957031 8.824219-8.828125 8.824219zm0 0"/><path d="m300.136719 485.515625h-52.964844c-4.871094 0-8.828125-3.945313-8.828125-8.824219v-88.277344c0-4.882812 3.957031-8.828124 8.828125-8.828124 4.875 0 8.828125 3.945312 8.828125 8.828124v79.449219h44.136719c4.875 0 8.828125 3.945313 8.828125 8.828125 0 4.878906-3.953125 8.824219-8.828125 8.824219zm0 0"/><path d="m264.828125 209.125v-12.179688l-3.277344-.40625c-10.007812-1.253906-18.84375-7.691406-22.402343-17.136718-.449219-1.199219-.9375-2.390625-1.464844-3.566406-4.21875-9.488282-2.445313-20.59375 3.9375-28.792969l1.648437-2.121094-8.605469-8.605469-2.117187 1.648438c-8.203125 6.382812-19.308594 8.15625-28.796875 3.9375-1.175781-.519532-2.367188-1.015625-3.566406-1.464844-9.445313-3.558594-15.882813-12.394531-17.136719-22.402344l-.402344-3.277344h-12.183593l-.40625 3.277344c-1.253907 10.007813-7.6875 18.84375-17.132813 22.402344-1.203125.449219-2.394531.9375-3.566406 1.464844-9.492188 4.21875-20.597657 2.445312-28.796875-3.9375l-2.117188-1.648438-8.609375 8.605469 1.652344 2.121094c6.371094 8.199219 8.15625 19.304687 3.9375 28.792969-.523437 1.175781-1.015625 2.367187-1.464844 3.566406-3.558593 9.445312-12.394531 15.882812-22.40625 17.136718l-3.273437.40625v12.171876l3.273437.40625c10.011719 1.253906 18.847657 7.6875 22.40625 17.132812.449219 1.203125.933594 2.394531 1.464844 3.566406 4.21875 9.492188 2.445313 20.59375-3.9375 28.796875l-1.652344 2.117188 8.609375 8.609375 2.117188-1.652344c8.199218-6.382812 19.304687-8.15625 28.796875-3.9375 1.171875.519531 2.363281 1.015625 3.566406 1.464844 9.445313 3.558594 15.878906 12.394531 17.132813 22.40625l.40625 3.28125h12.171874l.40625-3.273438c1.253907-10.011718 7.691407-18.847656 17.136719-22.402344 1.199219-.453124 2.390625-.9375 3.566407-1.46875 9.488281-4.21875 20.59375-2.445312 28.792968 3.9375l2.121094 1.652344 8.605469-8.609375-1.652344-2.117187c-6.371094-8.199219-8.15625-19.304688-3.933594-28.796875.519531-1.171875 1.011719-2.363281 1.464844-3.566407 3.554687-9.445312 12.394531-15.878906 22.402344-17.132812zm0 0"/></g><path d="m203.035156 203.035156c0 14.625-11.855468 26.480469-26.484375 26.480469-14.625 0-26.480469-11.855469-26.480469-26.480469s11.855469-26.484375 26.480469-26.484375c14.628907 0 26.484375 11.859375 26.484375 26.484375zm0 0" fill="#afb6bb"/></svg>