<svg height="512pt" viewBox="-79 0 512 512" width="512pt" xmlns="http://www.w3.org/2000/svg"><path d="m353.101562 485.515625h-353.101562v-485.515625h273.65625l79.445312 79.449219zm0 0" fill="#e3e4d8"/><path d="m273.65625 0v79.449219h79.445312zm0 0" fill="#d0cebd"/><path d="m0 353.101562h353.101562v158.898438h-353.101562zm0 0" fill="#e3558f"/><path d="m247.171875 225.5625v-9.738281l-2.621094-.324219c-8.007812-1-15.078125-6.152344-17.921875-13.710938-.359375-.960937-.75-1.914062-1.171875-2.851562-3.371093-7.589844-1.953125-16.480469 3.152344-23.039062l1.324219-1.695313-6.886719-6.886719-1.695313 1.316406c-6.558593 5.101563-15.449218 6.523438-23.039062 3.152344-.945312-.414062-1.890625-.8125-2.851562-1.175781-7.558594-2.839844-12.703126-9.910156-13.710938-17.917969l-.324219-2.621094h-9.738281l-.328125 2.613282c-.996094 8.003906-6.152344 15.074218-13.707031 17.917968-.960938.363282-1.917969.75-2.851563 1.175782-7.59375 3.371094-16.480469 1.949218-23.039062-3.152344l-1.695313-1.324219-6.886718 6.886719 1.324218 1.691406c5.101563 6.5625 6.523438 15.441406 3.152344 23.042969-.414062.945313-.8125 1.886719-1.175781 2.851563-2.839844 7.554687-9.914063 12.703124-17.917969 13.707031l-2.632812.335937v9.738282l2.625.324218c8.003906 1 15.074218 6.152344 17.917968 13.710938.363282.960937.75 1.914062 1.175782 2.851562 3.371093 7.589844 1.949218 16.480469-3.152344 23.039063l-1.324219 1.695312 6.886719 6.886719 1.691406-1.316406c6.5625-5.101563 15.449219-6.523438 23.042969-3.152344.941406.414062 1.886719.8125 2.851562 1.175781 7.554688 2.839844 12.703125 9.914063 13.707031 17.917969l.328126 2.621094h9.734374l.328126-2.609375c.996093-8.007813 6.152343-15.078125 13.710937-17.921875.960937-.363282 1.914063-.75 2.851563-1.175782 7.589843-3.371093 16.480468-1.949218 23.039062 3.152344l1.695312 1.316406 6.882813-6.886718-1.324219-1.695313c-5.101562-6.558593-6.523437-15.4375-3.148437-23.039062.414062-.945313.8125-1.886719 1.171875-2.851563 2.84375-7.554687 9.914062-12.703125 17.921875-13.707031zm0 0" fill="#a09893"/><path d="m79.449219 282.484375c-2.527344 0-5.042969-1.078125-6.789063-3.171875l-44.136718-52.964844c-2.730469-3.273437-2.730469-8.03125 0-11.308594l44.136718-52.964843c3.125-3.75 8.6875-4.238281 12.429688-1.128907 3.742187 3.125 4.253906 8.6875 1.128906 12.4375l-39.414062 47.308594 39.433593 47.304688c3.125 3.753906 2.613281 9.324218-1.132812 12.4375-1.660157 1.378906-3.664063 2.050781-5.65625 2.050781zm0 0" fill="#a09893"/><path d="m273.65625 282.484375c-1.996094 0-4-.671875-5.652344-2.039063-3.742187-3.125-4.246094-8.6875-1.128906-12.441406l39.425781-47.3125-39.425781-47.308594c-3.125-3.75-2.613281-9.320312 1.128906-12.4375 3.746094-3.117187 9.304688-2.621093 12.429688 1.128907l44.140625 52.964843c2.726562 3.277344 2.726562 8.035157 0 11.308594l-44.140625 52.964844c-1.746094 2.09375-4.253906 3.171875-6.777344 3.171875zm0 0" fill="#a09893"/><g fill="#fff"><path d="m158.898438 203.035156h35.308593v35.308594h-35.308593zm0 0"/><path d="m105.929688 485.515625c-4.871094 0-8.828126-3.945313-8.828126-8.824219v-77.429687c0-1.109375-.90625-2.019531-2.019531-2.019531h-31.265625c-1.113281 0-2.023437.910156-2.023437 2.019531v77.429687c0 4.878906-3.953125 8.824219-8.828125 8.824219-4.871094 0-8.828125-3.945313-8.828125-8.824219v-77.429687c0-10.847657 8.828125-19.675781 19.679687-19.675781h31.265625c10.847657 0 19.675781 8.828124 19.675781 19.675781v77.429687c0 4.878906-3.953124 8.824219-8.828124 8.824219zm0 0"/><path d="m105.929688 441.378906h-52.964844c-4.871094 0-8.828125-3.945312-8.828125-8.828125 0-4.878906 3.957031-8.828125 8.828125-8.828125h52.964844c4.875 0 8.828124 3.949219 8.828124 8.828125 0 4.882813-3.953124 8.828125-8.828124 8.828125zm0 0"/><path d="m180.964844 485.515625h-30.894532c-4.875 0-8.828124-3.945313-8.828124-8.824219 0-4.882812 3.953124-8.828125 8.828124-8.828125h30.894532c7.300781 0 13.242187-5.941406 13.242187-13.242187 0-7.300782-5.941406-13.242188-13.242187-13.242188h-8.828125c-17.035157 0-30.894531-13.859375-30.894531-30.894531 0-17.039063 13.859374-30.898437 30.894531-30.898437h30.898437c4.871094 0 8.828125 3.945312 8.828125 8.828124 0 4.882813-3.957031 8.828126-8.828125 8.828126h-30.898437c-7.300781 0-13.238281 5.941406-13.238281 13.242187 0 7.296875 5.9375 13.238281 13.238281 13.238281h8.828125c17.039062 0 30.898437 13.859375 30.898437 30.898438 0 17.035156-13.859375 30.894531-30.898437 30.894531zm0 0"/><path d="m247.171875 485.515625c-4.871094 0-8.828125-3.945313-8.828125-8.824219v-88.277344c0-4.882812 3.957031-8.828124 8.828125-8.828124 4.875 0 8.828125 3.945312 8.828125 8.828124v88.277344c0 4.878906-3.953125 8.824219-8.828125 8.824219zm0 0"/><path d="m273.65625 450.207031h-26.484375c-4.871094 0-8.828125-3.945312-8.828125-8.828125v-52.964844c0-4.882812 3.957031-8.828124 8.828125-8.828124h26.484375c19.472656 0 35.308594 15.835937 35.308594 35.3125 0 19.472656-15.835938 35.308593-35.308594 35.308593zm-17.65625-17.65625h17.65625c9.734375 0 17.652344-7.917969 17.652344-17.652343 0-9.738282-7.917969-17.65625-17.652344-17.65625h-17.65625zm0 0"/></g></svg>