<svg height="512pt" viewBox="-79 0 512 512" width="512pt" xmlns="http://www.w3.org/2000/svg"><path d="m353.101562 485.515625h-353.101562v-485.515625h273.65625l79.445312 79.449219zm0 0" fill="#e3e4d8"/><path d="m273.65625 0v79.449219h79.445312zm0 0" fill="#d0cebd"/><path d="m0 353.101562h353.101562v158.898438h-353.101562zm0 0" fill="#7e8bd1"/><g fill="#fff"><path d="m52.964844 485.515625h-8.828125c-4.871094 0-8.828125-3.945313-8.828125-8.824219v-88.277344c0-4.882812 3.957031-8.828124 8.828125-8.828124h8.828125c29.210937 0 52.964844 23.753906 52.964844 52.964843 0 29.210938-23.753907 52.964844-52.964844 52.964844zm0-17.652344h.089844zm0-70.621093v70.621093c19.472656 0 35.3125-15.839843 35.3125-35.3125 0-19.472656-15.839844-35.308593-35.3125-35.308593zm0 0"/><path d="m203.035156 485.515625c-3.488281 0-6.699218-2.0625-8.105468-5.347656l-18.378907-42.859375-18.371093 42.851562c-1.578126 3.699219-5.488282 5.851563-9.453126 5.25-3.980468-.609375-7.042968-3.839844-7.441406-7.847656l-8.828125-88.273438c-.484375-4.855468 3.054688-9.183593 7.910157-9.667968 4.847656-.414063 9.179687 3.054687 9.667968 7.910156l5.417969 54.199219 12.996094-30.3125c1.375-3.246094 4.570312-5.347657 8.101562-5.347657s6.726563 2.101563 8.113281 5.347657l12.996094 30.3125 5.417969-54.199219c.484375-4.855469 4.777344-8.332031 9.667969-7.910156 4.84375.484375 8.386718 4.8125 7.910156 9.667968l-8.828125 88.273438c-.398437 4.007812-3.460937 7.230469-7.441406 7.847656-.460938.070313-.910157.105469-1.351563.105469zm0 0"/><path d="m291.285156 485.515625h-17.550781c-14.644531 0-26.5625-11.914063-26.5625-26.5625v-52.804687c0-14.644532 11.917969-26.5625 26.5625-26.5625h35.230469c4.875 0 8.828125 3.945312 8.828125 8.828124 0 4.882813-3.953125 8.828126-8.828125 8.828126h-35.230469c-4.90625 0-8.90625 3.988281-8.90625 8.90625v52.804687c0 4.917969 4 8.910156 8.90625 8.910156h17.550781c4.878906 0 8.851563-3.972656 8.851563-8.863281v-26.449219c0-4.878906 3.957031-8.828125 8.828125-8.828125 4.875 0 8.828125 3.949219 8.828125 8.828125v26.449219c0 14.617188-11.890625 26.515625-26.507813 26.515625zm0 0"/><path d="m308.964844 441.378906h-17.65625c-4.871094 0-8.824219-3.945312-8.824219-8.828125 0-4.878906 3.953125-8.828125 8.824219-8.828125h17.65625c4.875 0 8.828125 3.949219 8.828125 8.828125 0 4.882813-3.953125 8.828125-8.828125 8.828125zm0 0"/></g><path d="m176.550781 158.898438c-4.871093 0-8.828125-3.949219-8.828125-8.828126v-70.621093c0-4.882813 3.957032-8.828125 8.828125-8.828125 4.875 0 8.828125 3.945312 8.828125 8.828125v70.621093c0 4.878907-3.953125 8.828126-8.828125 8.828126zm0 0" fill="#b8aca6"/><path d="m176.550781 317.792969c-4.871093 0-8.828125-3.945313-8.828125-8.828125v-70.621094c0-4.878906 3.957032-8.828125 8.828125-8.828125 4.875 0 8.828125 3.949219 8.828125 8.828125v70.621094c0 4.882812-3.953125 8.828125-8.828125 8.828125zm0 0" fill="#b8aca6"/><path d="m291.308594 203.035156h-70.617188c-4.875 0-8.828125-3.945312-8.828125-8.828125 0-4.882812 3.953125-8.828125 8.828125-8.828125h70.617188c4.875 0 8.828125 3.945313 8.828125 8.828125 0 4.882813-3.953125 8.828125-8.828125 8.828125zm0 0" fill="#b8aca6"/><path d="m132.414062 203.035156h-70.621093c-4.871094 0-8.828125-3.945312-8.828125-8.828125 0-4.882812 3.957031-8.828125 8.828125-8.828125h70.621093c4.871094 0 8.828126 3.945313 8.828126 8.828125 0 4.882813-3.957032 8.828125-8.828126 8.828125zm0 0" fill="#b8aca6"/><path d="m132.414062 150.070312h88.277344v88.273438h-88.277344zm0 0" fill="#988e89"/></svg>