<svg height="512pt" viewBox="-79 0 512 512" width="512pt" xmlns="http://www.w3.org/2000/svg"><path d="m353.101562 485.515625h-353.101562v-485.515625h273.65625l79.445312 79.449219zm0 0" fill="#e3e4d8"/><path d="m97.101562 220.691406h158.898438v79.445313h-158.898438zm0 0" fill="#f6b700"/><path d="m273.65625 0v79.449219h79.445312zm0 0" fill="#d0cebd"/><path d="m0 353.101562h353.101562v158.898438h-353.101562zm0 0" fill="#f6b700"/><g fill="#fff"><path d="m300.136719 485.515625h-52.964844c-4.871094 0-8.828125-3.945313-8.828125-8.824219 0-4.882812 3.957031-8.828125 8.828125-8.828125h52.964844c4.875 0 8.828125 3.945313 8.828125 8.828125 0 4.878906-3.953125 8.824219-8.828125 8.824219zm0 0"/><path d="m247.171875 485.515625c-4.871094 0-8.828125-3.945313-8.828125-8.824219v-88.277344c0-4.882812 3.957031-8.828124 8.828125-8.828124 4.875 0 8.828125 3.945312 8.828125 8.828124v88.277344c0 4.878906-3.953125 8.824219-8.828125 8.824219zm0 0"/><path d="m211.863281 485.515625c-4.875 0-8.828125-3.945313-8.828125-8.824219v-55.03125l-18.820312 32.925782c-3.132813 5.5-12.191406 5.5-15.324219 0l-18.820313-32.925782v55.03125c0 4.878906-3.957031 8.824219-8.828124 8.824219-4.875 0-8.828126-3.945313-8.828126-8.824219v-88.277344c0-4 2.691407-7.511718 6.558594-8.535156 3.875-1.042968 7.945313.667969 9.929688 4.15625l27.648437 48.375 27.648438-48.375c1.988281-3.488281 6.046875-5.191406 9.929687-4.15625 3.867188 1.023438 6.5625 4.535156 6.5625 8.535156v88.277344c0 4.878906-3.957031 8.824219-8.828125 8.824219zm0 0"/><path d="m105.929688 441.378906h-52.964844c-4.871094 0-8.828125-3.945312-8.828125-8.828125v-44.136719c0-4.882812 3.957031-8.828124 8.828125-8.828124h52.964844c4.875 0 8.828124 3.945312 8.828124 8.828124 0 4.882813-3.953124 8.828126-8.828124 8.828126h-44.136719v26.480468h44.136719c4.875 0 8.828124 3.949219 8.828124 8.828125 0 4.882813-3.953124 8.828125-8.828124 8.828125zm0 0"/><path d="m105.929688 485.515625h-52.964844c-4.871094 0-8.828125-3.945313-8.828125-8.824219v-44.140625c0-4.878906 3.957031-8.828125 8.828125-8.828125h52.964844c4.875 0 8.828124 3.949219 8.828124 8.828125 0 4.882813-3.953124 8.828125-8.828124 8.828125h-44.136719v26.484375h44.136719c4.875 0 8.828124 3.945313 8.828124 8.828125 0 4.878906-3.953124 8.824219-8.828124 8.824219zm0 0"/><path d="m176.550781 261.296875 12.617188 8.828125 58.003906-40.609375v-114.757813h-141.242187v114.757813l58.007812 40.609375zm0 0"/></g><path d="m194.207031 167.722656h-35.308593c-4.875 0-8.828126-3.945312-8.828126-8.824218 0-4.882813 3.953126-8.828126 8.828126-8.828126h35.308593c4.871094 0 8.828125 3.945313 8.828125 8.828126 0 4.878906-3.957031 8.824218-8.828125 8.824218zm0 0" fill="#afb6bb"/><path d="m211.863281 203.035156h-70.621093c-4.875 0-8.828126-3.945312-8.828126-8.828125 0-4.882812 3.953126-8.828125 8.828126-8.828125h70.621093c4.871094 0 8.828125 3.945313 8.828125 8.828125 0 4.882813-3.957031 8.828125-8.828125 8.828125zm0 0" fill="#afb6bb"/><path d="m264.828125 308.964844h-176.550781l88.273437-61.792969zm0 0" fill="#c19016"/><path d="m189.167969 256 75.660156 52.964844v-105.929688zm0 0" fill="#f6b700"/><path d="m88.277344 203.035156v105.929688l75.660156-52.964844zm0 0" fill="#f6b700"/></svg>