<svg height="512pt" viewBox="-79 0 512 512" width="512pt" xmlns="http://www.w3.org/2000/svg"><path d="m353.101562 485.515625h-353.101562v-485.515625h273.65625l79.445312 79.449219zm0 0" fill="#e3e4d8"/><path d="m273.65625 0v79.449219h79.445312zm0 0" fill="#d0cebd"/><path d="m0 353.101562h353.101562v158.898438h-353.101562zm0 0" fill="#ed8a19"/><path d="m158.898438 485.515625h-8.828126c-4.875 0-8.828124-3.945313-8.828124-8.824219v-88.277344c0-4.882812 3.953124-8.828124 8.828124-8.828124h8.828126c29.207031 0 52.964843 23.753906 52.964843 52.964843 0 29.210938-23.757812 52.964844-52.964843 52.964844zm0-17.652344h.085937zm0-70.621093v70.621093c19.472656 0 35.308593-15.839843 35.308593-35.3125 0-19.472656-15.835937-35.308593-35.308593-35.308593zm0 0" fill="#fff"/><path d="m83.863281 441.378906h-30.898437c-4.871094 0-8.828125-3.945312-8.828125-8.828125 0-4.878906 3.957031-8.828125 8.828125-8.828125h30.898437c7.300781 0 13.238281-5.941406 13.238281-13.238281 0-7.300781-5.9375-13.242187-13.238281-13.242187h-30.898437c-4.871094 0-8.828125-3.945313-8.828125-8.828126 0-4.882812 3.957031-8.828124 8.828125-8.828124h30.898437c17.035157 0 30.894531 13.859374 30.894531 30.898437 0 17.035156-13.859374 30.894531-30.894531 30.894531zm0 0" fill="#fff"/><path d="m83.863281 485.515625h-30.898437c-4.871094 0-8.828125-3.945313-8.828125-8.824219 0-4.882812 3.957031-8.828125 8.828125-8.828125h30.898437c7.300781 0 13.238281-5.941406 13.238281-13.242187 0-7.300782-5.9375-13.242188-13.238281-13.242188h-30.898437c-4.871094 0-8.828125-3.945312-8.828125-8.828125 0-4.878906 3.957031-8.828125 8.828125-8.828125h30.898437c17.035157 0 30.894531 13.859375 30.894531 30.898438 0 17.035156-13.859374 30.894531-30.894531 30.894531zm0 0" fill="#fff"/><path d="m278.070312 485.515625h-30.898437c-4.871094 0-8.828125-3.945313-8.828125-8.824219 0-4.882812 3.957031-8.828125 8.828125-8.828125h30.898437c7.300782 0 13.238282-5.941406 13.238282-13.242187 0-7.300782-5.9375-13.242188-13.238282-13.242188h-8.828124c-17.039063 0-30.898438-13.859375-30.898438-30.894531 0-17.039063 13.859375-30.898437 30.898438-30.898437h30.894531c4.875 0 8.828125 3.945312 8.828125 8.828124 0 4.882813-3.953125 8.828126-8.828125 8.828126h-30.894531c-7.300782 0-13.242188 5.941406-13.242188 13.242187 0 7.296875 5.941406 13.238281 13.242188 13.238281h8.828124c17.035157 0 30.894532 13.859375 30.894532 30.898438 0 17.035156-13.859375 30.894531-30.894532 30.894531zm0 0" fill="#fff"/><g fill="#b8aca6"><path d="m176.550781 150.070312c-4.871093 0-8.828125-3.949218-8.828125-8.828124v-52.964844c0-4.882813 3.957032-8.828125 8.828125-8.828125 4.875 0 8.828125 3.945312 8.828125 8.828125v52.964844c0 4.878906-3.953125 8.828124-8.828125 8.828124zm0 0"/><path d="m150.058594 194.207031c-1.597656 0-3.210938-.433593-4.667969-1.34375l-70.621094-44.136719c-4.140625-2.578124-5.394531-8.023437-2.808593-12.164062 2.589843-4.140625 8.035156-5.394531 12.164062-2.796875l70.621094 44.136719c4.140625 2.578125 5.394531 8.023437 2.808594 12.164062-1.675782 2.675782-4.546876 4.140625-7.496094 4.140625zm0 0"/><path d="m220.699219 185.378906c-2.851563 0-5.652344-1.375-7.355469-3.929687-2.699219-4.058594-1.605469-9.53125 2.445312-12.242188l52.96875-35.308593c4.050782-2.703126 9.53125-1.617188 12.242188 2.445312 2.699219 4.058594 1.605469 9.53125-2.445312 12.242188l-52.964844 35.308593c-1.511719 1-3.214844 1.484375-4.890625 1.484375zm0 0"/><path d="m176.550781 326.621094c-4.871093 0-8.828125-3.945313-8.828125-8.828125v-52.964844c0-4.882813 3.957032-8.828125 8.828125-8.828125 4.875 0 8.828125 3.945312 8.828125 8.828125v52.964844c0 4.882812-3.953125 8.828125-8.828125 8.828125zm0 0"/><path d="m273.644531 273.65625c-1.675781 0-3.378906-.488281-4.886719-1.484375l-52.96875-35.308594c-4.050781-2.710937-5.144531-8.183593-2.445312-12.246093 2.710938-4.058594 8.183594-5.15625 12.246094-2.445313l52.964844 35.3125c4.050781 2.707031 5.144531 8.183594 2.445312 12.242187-1.703125 2.550782-4.503906 3.929688-7.355469 3.929688zm0 0"/><path d="m79.457031 273.65625c-2.753906 0-5.472656-1.289062-7.195312-3.699219-2.832031-3.964843-1.914063-9.480469 2.058593-12.316406l61.792969-44.136719c3.953125-2.84375 9.480469-1.925781 12.3125 2.046875 2.835938 3.964844 1.917969 9.480469-2.054687 12.316407l-61.792969 44.136718c-1.554687 1.113282-3.347656 1.652344-5.121094 1.652344zm0 0"/></g><path d="m176.550781 282.484375-70.621093-35.3125v-88.273437l70.621093 35.308593zm0 0" fill="#ed8a19"/><path d="m176.550781 282.484375 70.621094-35.3125v-88.273437l-70.621094 35.308593zm0 0" fill="#dc691d"/><path d="m176.550781 194.207031-70.621093-35.308593 70.621093-35.3125 70.621094 35.3125zm0 0" fill="#c5411e"/></svg>