<svg height="512pt" viewBox="-79 0 512 512" width="512pt" xmlns="http://www.w3.org/2000/svg"><path d="m353.101562 485.515625h-353.101562v-485.515625h273.65625l79.445312 79.449219zm0 0" fill="#e3e4d8"/><path d="m273.65625 0v79.449219h79.445312zm0 0" fill="#d0cebd"/><path d="m0 353.101562h353.101562v158.898438h-353.101562zm0 0" fill="#454c6e"/><g fill="#fff"><path d="m203.035156 485.515625c-3.046875 0-5.949218-1.578125-7.566406-4.28125l-36.570312-60.953125v56.410156c0 4.878906-3.957032 8.824219-8.828126 8.824219-4.875 0-8.828124-3.945313-8.828124-8.824219v-88.277344c0-3.964843 2.648437-7.449218 6.46875-8.511718 3.832031-1.046875 7.882812.558594 9.921874 3.964844l36.574219 60.953124v-56.40625c0-4.882812 3.953125-8.828124 8.828125-8.828124 4.871094 0 8.828125 3.945312 8.828125 8.828124v88.277344c0 3.960938-2.648437 7.449219-6.472656 8.507813-.785156.210937-1.570313.316406-2.355469.316406zm0 0"/><path d="m105.929688 397.242188h-52.964844c-4.871094 0-8.828125-3.945313-8.828125-8.828126 0-4.882812 3.957031-8.828124 8.828125-8.828124h52.964844c4.875 0 8.828124 3.945312 8.828124 8.828124 0 4.882813-3.953124 8.828126-8.828124 8.828126zm0 0"/><path d="m105.929688 485.515625h-52.964844c-4.871094 0-8.828125-3.945313-8.828125-8.824219 0-4.882812 3.957031-8.828125 8.828125-8.828125h52.964844c4.875 0 8.828124 3.945313 8.828124 8.828125 0 4.878906-3.953124 8.824219-8.828124 8.824219zm0 0"/><path d="m79.449219 485.515625c-4.875 0-8.828125-3.945313-8.828125-8.824219v-88.277344c0-4.882812 3.953125-8.828124 8.828125-8.828124 4.871093 0 8.828125 3.945312 8.828125 8.828124v88.277344c0 4.878906-3.957032 8.824219-8.828125 8.824219zm0 0"/><path d="m300.136719 397.242188h-52.964844c-4.871094 0-8.828125-3.945313-8.828125-8.828126 0-4.882812 3.957031-8.828124 8.828125-8.828124h52.964844c4.875 0 8.828125 3.945312 8.828125 8.828124 0 4.882813-3.953125 8.828126-8.828125 8.828126zm0 0"/><path d="m300.136719 485.515625h-52.964844c-4.871094 0-8.828125-3.945313-8.828125-8.824219 0-4.882812 3.957031-8.828125 8.828125-8.828125h52.964844c4.875 0 8.828125 3.945313 8.828125 8.828125 0 4.878906-3.953125 8.824219-8.828125 8.824219zm0 0"/><path d="m273.65625 485.515625c-4.875 0-8.828125-3.945313-8.828125-8.824219v-88.277344c0-4.882812 3.953125-8.828124 8.828125-8.828124 4.871094 0 8.828125 3.945312 8.828125 8.828124v88.277344c0 4.878906-3.957031 8.824219-8.828125 8.824219zm0 0"/><path d="m256 300.136719h-158.898438v-194.207031h105.933594l52.964844 52.96875zm0 0"/></g><path d="m256 158.898438h-52.964844v-52.96875zm0 0" fill="#afb6bb"/><path d="m203.035156 238.34375h-52.964844c-4.875 0-8.828124-3.945312-8.828124-8.828125 0-4.878906 3.953124-8.824219 8.828124-8.824219h52.964844c4.871094 0 8.828125 3.945313 8.828125 8.824219 0 4.882813-3.957031 8.828125-8.828125 8.828125zm0 0" fill="#afb6bb"/><path d="m203.035156 203.035156h-52.964844c-4.875 0-8.828124-3.945312-8.828124-8.828125 0-4.882812 3.953124-8.828125 8.828124-8.828125h52.964844c4.871094 0 8.828125 3.945313 8.828125 8.828125 0 4.882813-3.957031 8.828125-8.828125 8.828125zm0 0" fill="#afb6bb"/><path d="m203.035156 273.65625h-52.964844c-4.875 0-8.828124-3.945312-8.828124-8.828125s3.953124-8.828125 8.828124-8.828125h52.964844c4.871094 0 8.828125 3.945312 8.828125 8.828125s-3.957031 8.828125-8.828125 8.828125zm0 0" fill="#afb6bb"/></svg>