<svg height="512pt" viewBox="-79 0 512 512" width="512pt" xmlns="http://www.w3.org/2000/svg"><path d="m353.101562 485.515625h-353.101562v-485.515625h273.65625l79.445312 79.449219zm0 0" fill="#e3e4d8"/><path d="m273.65625 0v79.449219h79.445312zm0 0" fill="#d0cebd"/><path d="m0 353.101562h353.101562v158.898438h-353.101562zm0 0" fill="#859594"/><path d="m203.035156 397.242188h-52.964844c-4.875 0-8.828124-3.945313-8.828124-8.828126 0-4.882812 3.953124-8.828124 8.828124-8.828124h52.964844c4.871094 0 8.828125 3.945312 8.828125 8.828124 0 4.882813-3.957031 8.828126-8.828125 8.828126zm0 0" fill="#fff"/><path d="m176.550781 485.515625c-4.871093 0-8.828125-3.945313-8.828125-8.824219v-88.277344c0-4.882812 3.957032-8.828124 8.828125-8.828124 4.875 0 8.828125 3.945312 8.828125 8.828124v88.277344c0 4.878906-3.953125 8.824219-8.828125 8.824219zm0 0" fill="#fff"/><path d="m70.621094 114.757812v70.621094h35.308594v-35.308594h52.96875v123.585938h-52.96875v35.308594h141.242187v-35.308594h-52.964844v-123.585938h52.964844v35.308594h35.3125v-70.621094zm0 0" fill="#28384c"/><g fill="#fff"><path d="m88.277344 485.515625h-17.65625c-14.601563 0-26.484375-11.878906-26.484375-26.480469v-52.964844c0-14.601562 11.875-26.484374 26.484375-26.484374h17.65625c14.597656 0 26.480468 11.882812 26.480468 26.484374v52.964844c0 14.601563-11.871093 26.480469-26.480468 26.480469zm-17.65625-88.273437c-4.863282 0-8.828125 3.953124-8.828125 8.828124v52.964844c0 4.871094 3.953125 8.828125 8.828125 8.828125h17.65625c4.863281 0 8.824218-3.957031 8.824218-8.828125v-52.964844c0-4.875-3.953124-8.828124-8.824218-8.828124zm0 0"/><path d="m300.136719 397.242188h-52.964844c-4.871094 0-8.828125-3.945313-8.828125-8.828126 0-4.882812 3.957031-8.828124 8.828125-8.828124h52.964844c4.875 0 8.828125 3.945312 8.828125 8.828124 0 4.882813-3.953125 8.828126-8.828125 8.828126zm0 0"/><path d="m300.136719 441.378906h-52.964844c-4.871094 0-8.828125-3.945312-8.828125-8.828125 0-4.878906 3.957031-8.828125 8.828125-8.828125h52.964844c4.875 0 8.828125 3.949219 8.828125 8.828125 0 4.882813-3.953125 8.828125-8.828125 8.828125zm0 0"/><path d="m247.171875 485.515625c-4.871094 0-8.828125-3.945313-8.828125-8.824219v-88.277344c0-4.882812 3.957031-8.828124 8.828125-8.828124 4.875 0 8.828125 3.945312 8.828125 8.828124v88.277344c0 4.878906-3.953125 8.824219-8.828125 8.824219zm0 0"/></g></svg>