<svg height="512pt" viewBox="-79 0 512 512" width="512pt" xmlns="http://www.w3.org/2000/svg"><path d="m353.101562 485.515625h-353.101562v-485.515625h273.65625l79.445312 79.449219zm0 0" fill="#e3e4d8"/><path d="m273.65625 0v79.449219h79.445312zm0 0" fill="#d0cebd"/><path d="m0 353.101562h353.101562v158.898438h-353.101562zm0 0" fill="#4e74ba"/><g fill="#fff"><path d="m300.136719 485.515625c-4.871094 0-8.828125-3.945313-8.828125-8.824219v-55.03125l-18.820313 32.925782c-3.140625 5.5-12.179687 5.5-15.324219 0l-18.820312-32.925782v55.03125c0 4.878906-3.953125 8.824219-8.828125 8.824219-4.871094 0-8.824219-3.945313-8.824219-8.824219v-88.277344c0-4 2.691406-7.511718 6.558594-8.535156 3.863281-1.035156 7.945312.667969 9.929688 4.15625l27.648437 48.375 27.648437-48.375c1.984376-3.488281 6.0625-5.191406 9.929688-4.15625 3.867188 1.023438 6.558594 4.535156 6.558594 8.535156v88.277344c0 4.878906-3.953125 8.824219-8.828125 8.824219zm0 0"/><path d="m176.550781 485.515625h-17.652343c-14.601563 0-26.484376-11.878906-26.484376-26.480469v-52.964844c0-14.601562 11.871094-26.484374 26.484376-26.484374h17.652343c14.601563 0 26.484375 11.882812 26.484375 26.484374v52.964844c0 14.601563-11.875 26.480469-26.484375 26.480469zm-17.652343-88.273437c-4.867188 0-8.828126 3.953124-8.828126 8.828124v52.964844c0 4.871094 3.953126 8.828125 8.828126 8.828125h17.652343c4.863281 0 8.828125-3.957031 8.828125-8.828125v-52.964844c0-4.875-3.953125-8.828124-8.828125-8.828124zm0 0"/><path d="m105.929688 485.515625h-35.230469c-14.644531 0-26.5625-11.914063-26.5625-26.5625v-52.804687c0-14.644532 11.917969-26.5625 26.5625-26.5625h35.230469c4.875 0 8.828124 3.945312 8.828124 8.828124 0 4.882813-3.953124 8.828126-8.828124 8.828126h-35.230469c-4.917969 0-8.90625 3.988281-8.90625 8.90625v52.804687c0 4.917969 3.988281 8.910156 8.90625 8.910156h35.230469c4.875 0 8.828124 3.945313 8.828124 8.828125 0 4.878906-3.953124 8.824219-8.828124 8.824219zm0 0"/></g><path d="m150.070312 247.171875h52.964844v61.792969h-52.964844zm0 0" fill="#afb6bb"/><path d="m229.515625 317.792969h-105.929687c-4.871094 0-8.828126-3.945313-8.828126-8.828125 0-4.882813 3.957032-8.828125 8.828126-8.828125h105.929687c4.875 0 8.828125 3.945312 8.828125 8.828125 0 4.882812-3.953125 8.828125-8.828125 8.828125zm0 0" fill="#e7eced"/><path d="m282.484375 229.515625h-211.863281v-88.273437c0-9.746094 7.898437-17.648438 17.644531-17.648438h176.570313c9.746093 0 17.648437 7.902344 17.648437 17.648438zm0 0" fill="#28384c"/><path d="m264.835938 256h-176.570313c-9.746094 0-17.644531-7.902344-17.644531-17.644531v-17.664063h211.863281v17.664063c0 9.742187-7.902344 17.644531-17.648437 17.644531zm0 0" fill="#e7eced"/></svg>