<svg height="512pt" viewBox="-79 0 512 512" width="512pt" xmlns="http://www.w3.org/2000/svg"><path d="m353.101562 485.515625h-353.101562v-485.515625h273.65625l79.445312 79.449219zm0 0" fill="#e3e4d8"/><path d="m273.65625 0v79.449219h79.445312zm0 0" fill="#d0cebd"/><path d="m0 353.101562h353.101562v158.898438h-353.101562zm0 0" fill="#91d396"/><g fill="#fff"><path d="m150.070312 114.757812h35.308594v35.3125h-35.308594zm0 0"/><path d="m150.070312 194.207031h35.308594v105.929688h-35.308594zm0 0"/><path d="m273.65625 485.515625h-17.65625c-14.601562 0-26.484375-11.878906-26.484375-26.480469v-52.964844c0-14.601562 11.875-26.484374 26.484375-26.484374h17.65625c14.601562 0 26.480469 11.882812 26.480469 26.484374v52.964844c0 14.601563-11.871094 26.480469-26.480469 26.480469zm-17.65625-88.273437c-4.863281 0-8.828125 3.953124-8.828125 8.828124v52.964844c0 4.871094 3.957031 8.828125 8.828125 8.828125h17.65625c4.863281 0 8.828125-3.957031 8.828125-8.828125v-52.964844c0-4.875-3.957031-8.828124-8.828125-8.828124zm0 0"/><path d="m97.101562 485.515625c-3.042968 0-5.949218-1.578125-7.5625-4.28125l-36.574218-60.953125v56.410156c0 4.878906-3.953125 8.824219-8.828125 8.824219-4.871094 0-8.828125-3.945313-8.828125-8.824219v-88.277344c0-3.964843 2.648437-7.449218 6.472656-8.511718 3.832031-1.046875 7.882812.558594 9.921875 3.964844l36.574219 60.953124v-56.40625c0-4.882812 3.953125-8.828124 8.824218-8.828124 4.875 0 8.828126 3.945312 8.828126 8.828124v88.277344c0 3.960938-2.648438 7.449219-6.46875 8.507813-.785157.210937-1.570313.316406-2.359376.316406zm0 0"/><path d="m194.207031 397.242188h-52.964843c-4.875 0-8.828126-3.945313-8.828126-8.828126 0-4.882812 3.953126-8.828124 8.828126-8.828124h52.964843c4.871094 0 8.828125 3.945312 8.828125 8.828124 0 4.882813-3.957031 8.828126-8.828125 8.828126zm0 0"/><path d="m194.207031 441.378906h-52.964843c-4.875 0-8.828126-3.945312-8.828126-8.828125 0-4.878906 3.953126-8.828125 8.828126-8.828125h52.964843c4.871094 0 8.828125 3.949219 8.828125 8.828125 0 4.882813-3.957031 8.828125-8.828125 8.828125zm0 0"/><path d="m141.242188 485.515625c-4.875 0-8.828126-3.945313-8.828126-8.824219v-88.277344c0-4.882812 3.953126-8.828124 8.828126-8.828124 4.871093 0 8.828124 3.945312 8.828124 8.828124v88.277344c0 4.878906-3.957031 8.824219-8.828124 8.824219zm0 0"/></g></svg>