<svg height="512pt" viewBox="-79 0 512 512" width="512pt" xmlns="http://www.w3.org/2000/svg"><path d="m353.101562 512h-353.101562v-512h273.65625l79.445312 79.449219zm0 0" fill="#e3e4d8"/><path d="m273.65625 0v79.449219h79.445312zm0 0" fill="#d3d2c1"/><g fill="#a09893"><path d="m211.863281 432.550781h-70.621093c-4.875 0-8.828126-3.945312-8.828126-8.828125v-70.621094c0-4.878906 3.953126-8.824218 8.828126-8.824218h70.621093c4.871094 0 8.828125 3.945312 8.828125 8.824218v70.621094c0 4.882813-3.957031 8.828125-8.828125 8.828125zm-61.792969-17.652343h52.964844v-52.96875h-52.964844zm0 0"/><path d="m176.550781 361.929688c-4.871093 0-8.828125-3.945313-8.828125-8.828126v-203.03125c0-4.882812 3.957032-8.828124 8.828125-8.828124 4.875 0 8.828125 3.945312 8.828125 8.828124v203.03125c0 4.882813-3.953125 8.828126-8.828125 8.828126zm0 0"/><path d="m167.722656 423.722656h17.65625v88.277344h-17.65625zm0 0"/><path d="m203.035156 317.792969h-52.964844c-4.875 0-8.828124-3.945313-8.828124-8.828125 0-4.882813 3.953124-8.828125 8.828124-8.828125h52.964844c4.871094 0 8.828125 3.945312 8.828125 8.828125 0 4.882812-3.957031 8.828125-8.828125 8.828125zm0 0"/><path d="m203.035156 273.65625h-52.964844c-4.875 0-8.828124-3.945312-8.828124-8.828125s3.953124-8.828125 8.828124-8.828125h52.964844c4.871094 0 8.828125 3.945312 8.828125 8.828125s-3.957031 8.828125-8.828125 8.828125zm0 0"/><path d="m203.035156 229.515625h-52.964844c-4.875 0-8.828124-3.945313-8.828124-8.824219 0-4.882812 3.953124-8.828125 8.828124-8.828125h52.964844c4.871094 0 8.828125 3.945313 8.828125 8.828125 0 4.878906-3.957031 8.824219-8.828125 8.824219zm0 0"/><path d="m203.035156 185.378906h-52.964844c-4.875 0-8.828124-3.945312-8.828124-8.828125 0-4.878906 3.953124-8.828125 8.828124-8.828125h52.964844c4.871094 0 8.828125 3.949219 8.828125 8.828125 0 4.882813-3.957031 8.828125-8.828125 8.828125zm0 0"/><path d="m211.863281 397.242188h-70.621093c-4.875 0-8.828126-3.945313-8.828126-8.828126v-35.3125c0-4.878906 3.953126-8.824218 8.828126-8.824218h70.621093c4.871094 0 8.828125 3.945312 8.828125 8.824218v35.3125c0 4.882813-3.957031 8.828126-8.828125 8.828126zm-61.792969-17.65625h52.964844v-17.65625h-52.964844zm0 0"/></g></svg>