<svg height="512pt" viewBox="-79 0 512 512" width="512pt" xmlns="http://www.w3.org/2000/svg"><path d="m353.101562 485.515625h-353.101562v-485.515625h273.65625l79.445312 79.449219zm0 0" fill="#e3e4d8"/><path d="m273.65625 0v79.449219h79.445312zm0 0" fill="#d0cebd"/><path d="m0 353.101562h353.101562v158.898438h-353.101562zm0 0" fill="#d794fa"/><g fill="#a09893"><path d="m123.585938 229.515625h-70.621094c-4.871094 0-8.828125-3.953125-8.828125-8.824219 0-4.875 3.957031-8.828125 8.828125-8.828125h70.621094c4.875 0 8.828124 3.953125 8.828124 8.828125 0 4.871094-3.953124 8.824219-8.828124 8.824219zm0 0"/><path d="m247.171875 229.515625h-88.273437c-4.875 0-8.828126-3.953125-8.828126-8.824219 0-4.875 3.953126-8.828125 8.828126-8.828125h88.273437c4.875 0 8.828125 3.953125 8.828125 8.828125 0 4.871094-3.953125 8.824219-8.828125 8.824219zm0 0"/><path d="m220.691406 264.828125h-97.105468c-4.871094 0-8.828126-3.957031-8.828126-8.828125s3.957032-8.828125 8.828126-8.828125h97.105468c4.871094 0 8.824219 3.957031 8.824219 8.828125s-3.953125 8.828125-8.824219 8.828125zm0 0"/><path d="m300.136719 229.515625h-17.652344c-4.875 0-8.828125-3.953125-8.828125-8.824219 0-4.875 3.953125-8.828125 8.828125-8.828125h17.652344c4.875 0 8.828125 3.953125 8.828125 8.828125 0 4.871094-3.953125 8.824219-8.828125 8.824219zm0 0"/><path d="m300.136719 264.828125h-44.136719c-4.871094 0-8.828125-3.957031-8.828125-8.828125s3.957031-8.828125 8.828125-8.828125h44.136719c4.875 0 8.828125 3.957031 8.828125 8.828125s-3.953125 8.828125-8.828125 8.828125zm0 0"/><path d="m88.277344 264.828125h-35.3125c-4.871094 0-8.828125-3.957031-8.828125-8.828125s3.957031-8.828125 8.828125-8.828125h35.3125c4.871094 0 8.824218 3.957031 8.824218 8.828125s-3.953124 8.828125-8.824218 8.828125zm0 0"/><path d="m123.585938 300.136719h-70.621094c-4.871094 0-8.828125-3.953125-8.828125-8.828125 0-4.871094 3.957031-8.824219 8.828125-8.824219h70.621094c4.875 0 8.828124 3.953125 8.828124 8.824219 0 4.875-3.953124 8.828125-8.828124 8.828125zm0 0"/><path d="m247.171875 300.136719h-88.273437c-4.875 0-8.828126-3.953125-8.828126-8.828125 0-4.871094 3.953126-8.824219 8.828126-8.824219h88.273437c4.875 0 8.828125 3.953125 8.828125 8.824219 0 4.875-3.953125 8.828125-8.828125 8.828125zm0 0"/><path d="m300.136719 300.136719h-17.652344c-4.875 0-8.828125-3.953125-8.828125-8.828125 0-4.871094 3.953125-8.824219 8.828125-8.824219h17.652344c4.875 0 8.828125 3.953125 8.828125 8.824219 0 4.875-3.953125 8.828125-8.828125 8.828125zm0 0"/><path d="m300.136719 194.207031h-70.621094c-4.871094 0-8.824219-3.953125-8.824219-8.828125 0-4.871094 3.953125-8.828125 8.824219-8.828125h70.621094c4.875 0 8.828125 3.957031 8.828125 8.828125 0 4.875-3.953125 8.828125-8.828125 8.828125zm0 0"/><path d="m194.207031 194.207031h-88.277343c-4.871094 0-8.828126-3.953125-8.828126-8.828125 0-4.871094 3.957032-8.828125 8.828126-8.828125h88.277343c4.871094 0 8.828125 3.957031 8.828125 8.828125 0 4.875-3.957031 8.828125-8.828125 8.828125zm0 0"/><path d="m229.515625 158.898438h-97.101563c-4.875 0-8.828124-3.957032-8.828124-8.828126 0-4.875 3.953124-8.828124 8.828124-8.828124h97.101563c4.875 0 8.828125 3.953124 8.828125 8.828124 0 4.871094-3.953125 8.828126-8.828125 8.828126zm0 0"/><path d="m70.621094 194.207031h-17.65625c-4.871094 0-8.828125-3.953125-8.828125-8.828125 0-4.871094 3.957031-8.828125 8.828125-8.828125h17.65625c4.871094 0 8.828125 3.957031 8.828125 8.828125 0 4.875-3.957031 8.828125-8.828125 8.828125zm0 0"/><path d="m97.101562 158.898438h-44.136718c-4.871094 0-8.828125-3.957032-8.828125-8.828126 0-4.875 3.957031-8.828124 8.828125-8.828124h44.136718c4.875 0 8.828126 3.953124 8.828126 8.828124 0 4.871094-3.953126 8.828126-8.828126 8.828126zm0 0"/><path d="m300.136719 158.898438h-35.308594c-4.875 0-8.828125-3.957032-8.828125-8.828126 0-4.875 3.953125-8.828124 8.828125-8.828124h35.308594c4.875 0 8.828125 3.953124 8.828125 8.828124 0 4.871094-3.953125 8.828126-8.828125 8.828126zm0 0"/></g><path d="m52.964844 485.515625c-4.871094 0-8.828125-3.953125-8.828125-8.824219v-88.277344c0-4.875 3.957031-8.828124 8.828125-8.828124 4.875 0 8.828125 3.953124 8.828125 8.828124v88.277344c0 4.871094-3.953125 8.824219-8.828125 8.824219zm0 0" fill="#fff"/><path d="m79.449219 450.207031h-26.484375c-4.871094 0-8.828125-3.953125-8.828125-8.828125v-52.964844c0-4.875 3.957031-8.828124 8.828125-8.828124h26.484375c19.472656 0 35.308593 15.835937 35.308593 35.3125 0 19.472656-15.835937 35.308593-35.308593 35.308593zm-17.65625-17.65625h17.65625c9.734375 0 17.652343-7.917969 17.652343-17.652343 0-9.738282-7.917968-17.65625-17.652343-17.65625h-17.65625zm0 0" fill="#fff"/><path d="m203.035156 397.242188h-52.964844c-4.875 0-8.828124-3.957032-8.828124-8.828126 0-4.875 3.953124-8.828124 8.828124-8.828124h52.964844c4.871094 0 8.828125 3.953124 8.828125 8.828124 0 4.871094-3.957031 8.828126-8.828125 8.828126zm0 0" fill="#fff"/><path d="m176.550781 485.515625c-4.871093 0-8.828125-3.953125-8.828125-8.824219v-88.277344c0-4.875 3.957032-8.828124 8.828125-8.828124 4.875 0 8.828125 3.953124 8.828125 8.828124v88.277344c0 4.871094-3.953125 8.824219-8.828125 8.824219zm0 0" fill="#fff"/><path d="m300.136719 397.242188h-52.964844c-4.871094 0-8.828125-3.957032-8.828125-8.828126 0-4.875 3.957031-8.828124 8.828125-8.828124h52.964844c4.875 0 8.828125 3.953124 8.828125 8.828124 0 4.871094-3.953125 8.828126-8.828125 8.828126zm0 0" fill="#fff"/><path d="m300.136719 441.378906h-52.964844c-4.871094 0-8.828125-3.953125-8.828125-8.828125 0-4.871093 3.957031-8.828125 8.828125-8.828125h52.964844c4.875 0 8.828125 3.957032 8.828125 8.828125 0 4.875-3.953125 8.828125-8.828125 8.828125zm0 0" fill="#fff"/><path d="m247.171875 485.515625c-4.871094 0-8.828125-3.953125-8.828125-8.824219v-88.277344c0-4.875 3.957031-8.828124 8.828125-8.828124 4.875 0 8.828125 3.953124 8.828125 8.828124v88.277344c0 4.871094-3.953125 8.824219-8.828125 8.824219zm0 0" fill="#fff"/><path d="m105.941406 485.515625c-2.683594 0-5.332031-1.214844-7.074218-3.53125l-26.480469-35.308594c-2.921875-3.902343-2.136719-9.4375 1.765625-12.359375 3.902344-2.929687 9.4375-2.136718 12.359375 1.765625l26.480469 35.3125c2.921874 3.898438 2.136718 9.433594-1.765626 12.355469-1.589843 1.195312-3.449218 1.765625-5.285156 1.765625zm0 0" fill="#fff"/></svg>