<svg height="512pt" viewBox="-79 0 512 512" width="512pt" xmlns="http://www.w3.org/2000/svg"><path d="m353.101562 485.515625h-353.101562v-485.515625h273.65625l79.445312 79.449219zm0 0" fill="#e3e4d8"/><path d="m273.65625 0v79.449219h79.445312zm0 0" fill="#d0cebd"/><path d="m0 353.101562h353.101562v158.898438h-353.101562zm0 0" fill="#6ab86f"/><g fill="#a09893"><path d="m123.585938 167.722656h-70.621094c-4.871094 0-8.828125-3.953125-8.828125-8.824218v-35.3125c0-4.871094 3.957031-8.828126 8.828125-8.828126h70.621094c4.875 0 8.828124 3.957032 8.828124 8.828126v35.3125c0 4.871093-3.953124 8.824218-8.828124 8.824218zm-61.792969-17.652344h52.964843v-17.65625h-52.964843zm0 0"/><path d="m123.585938 203.035156h-70.621094c-4.871094 0-8.828125-3.957031-8.828125-8.828125v-35.308593c0-4.875 3.957031-8.828126 8.828125-8.828126h70.621094c4.875 0 8.828124 3.953126 8.828124 8.828126v35.308593c0 4.871094-3.953124 8.828125-8.828124 8.828125zm-61.792969-17.65625h52.964843v-17.65625h-52.964843zm0 0"/><path d="m300.136719 203.035156h-176.550781c-4.871094 0-8.828126-3.957031-8.828126-8.828125v-35.308593c0-4.875 3.957032-8.828126 8.828126-8.828126h176.550781c4.875 0 8.828125 3.953126 8.828125 8.828126v35.308593c0 4.871094-3.953125 8.828125-8.828125 8.828125zm-167.722657-17.65625h158.894532v-17.65625h-158.894532zm0 0"/><path d="m123.585938 238.34375h-70.621094c-4.871094 0-8.828125-3.953125-8.828125-8.828125v-35.308594c0-4.871093 3.957031-8.828125 8.828125-8.828125h70.621094c4.875 0 8.828124 3.957032 8.828124 8.828125v35.308594c0 4.875-3.953124 8.828125-8.828124 8.828125zm-61.792969-17.652344h52.964843v-17.65625h-52.964843zm0 0"/><path d="m300.136719 238.34375h-176.550781c-4.871094 0-8.828126-3.953125-8.828126-8.828125v-35.308594c0-4.871093 3.957032-8.828125 8.828126-8.828125h176.550781c4.875 0 8.828125 3.957032 8.828125 8.828125v35.308594c0 4.875-3.953125 8.828125-8.828125 8.828125zm-167.722657-17.652344h158.894532v-17.65625h-158.894532zm0 0"/><path d="m123.585938 273.65625h-70.621094c-4.871094 0-8.828125-3.957031-8.828125-8.828125v-35.3125c0-4.871094 3.957031-8.824219 8.828125-8.824219h70.621094c4.875 0 8.828124 3.953125 8.828124 8.824219v35.3125c0 4.871094-3.953124 8.828125-8.828124 8.828125zm-61.792969-17.65625h52.964843v-17.65625h-52.964843zm0 0"/><path d="m300.136719 273.65625h-176.550781c-4.871094 0-8.828126-3.957031-8.828126-8.828125v-35.3125c0-4.871094 3.957032-8.824219 8.828126-8.824219h176.550781c4.875 0 8.828125 3.953125 8.828125 8.824219v35.3125c0 4.871094-3.953125 8.828125-8.828125 8.828125zm-167.722657-17.65625h158.894532v-17.65625h-158.894532zm0 0"/><path d="m123.585938 308.964844h-70.621094c-4.871094 0-8.828125-3.953125-8.828125-8.828125v-35.308594c0-4.875 3.957031-8.828125 8.828125-8.828125h70.621094c4.875 0 8.828124 3.953125 8.828124 8.828125v35.308594c0 4.875-3.953124 8.828125-8.828124 8.828125zm-61.792969-17.65625h52.964843v-17.652344h-52.964843zm0 0"/><path d="m300.136719 308.964844h-176.550781c-4.871094 0-8.828126-3.953125-8.828126-8.828125v-35.308594c0-4.875 3.957032-8.828125 8.828126-8.828125h176.550781c4.875 0 8.828125 3.953125 8.828125 8.828125v35.308594c0 4.875-3.953125 8.828125-8.828125 8.828125zm-167.722657-17.65625h158.894532v-17.652344h-158.894532zm0 0"/></g><path d="m300.136719 397.242188h-52.964844c-4.871094 0-8.828125-3.957032-8.828125-8.828126 0-4.875 3.957031-8.828124 8.828125-8.828124h52.964844c4.875 0 8.828125 3.953124 8.828125 8.828124 0 4.871094-3.953125 8.828126-8.828125 8.828126zm0 0" fill="#fff"/><path d="m300.136719 441.378906h-52.964844c-4.871094 0-8.828125-3.953125-8.828125-8.828125 0-4.871093 3.957031-8.828125 8.828125-8.828125h52.964844c4.875 0 8.828125 3.957032 8.828125 8.828125 0 4.875-3.953125 8.828125-8.828125 8.828125zm0 0" fill="#fff"/><path d="m247.171875 485.515625c-4.871094 0-8.828125-3.953125-8.828125-8.824219v-88.277344c0-4.875 3.957031-8.828124 8.828125-8.828124 4.875 0 8.828125 3.953124 8.828125 8.828124v88.277344c0 4.871094-3.953125 8.824219-8.828125 8.824219zm0 0" fill="#fff"/><path d="m61.792969 485.515625h-8.828125c-4.871094 0-8.828125-3.953125-8.828125-8.824219v-88.277344c0-4.875 3.957031-8.828124 8.828125-8.828124h8.828125c29.210937 0 52.964843 23.753906 52.964843 52.964843 0 29.210938-23.753906 52.964844-52.964843 52.964844zm0-17.652344h.089843zm0-70.621093v70.621093c19.472656 0 35.308593-15.839843 35.308593-35.3125 0-19.472656-15.835937-35.308593-35.308593-35.308593zm0 0" fill="#fff"/><path d="m150.070312 485.515625c-4.875 0-8.828124-3.953125-8.828124-8.824219v-88.277344c0-4.875 3.953124-8.828124 8.828124-8.828124 4.871094 0 8.828126 3.953124 8.828126 8.828124v88.277344c0 4.871094-3.957032 8.824219-8.828126 8.824219zm0 0" fill="#fff"/><path d="m180.964844 441.378906h-30.894532c-4.875 0-8.828124-3.953125-8.828124-8.828125v-44.136719c0-4.875 3.953124-8.828124 8.828124-8.828124h30.894532c17.039062 0 30.898437 13.859374 30.898437 30.898437 0 17.035156-13.859375 30.894531-30.898437 30.894531zm-22.066406-17.65625h22.066406c7.300781 0 13.242187-5.941406 13.242187-13.238281 0-7.300781-5.941406-13.242187-13.242187-13.242187h-22.066406zm0 0" fill="#fff"/><path d="m180.964844 485.515625h-30.894532c-4.875 0-8.828124-3.953125-8.828124-8.824219v-44.140625c0-4.871093 3.953124-8.828125 8.828124-8.828125h30.894532c17.039062 0 30.898437 13.859375 30.898437 30.898438 0 17.035156-13.859375 30.894531-30.898437 30.894531zm-22.066406-17.652344h22.066406c7.300781 0 13.242187-5.941406 13.242187-13.242187 0-7.300782-5.941406-13.242188-13.242187-13.242188h-22.066406zm0 0" fill="#fff"/></svg>