<?xml version="1.0" encoding="iso-8859-1"?>
<!-- Generator: Adobe Illustrator 16.0.0, SVG Export Plug-In . SVG Version: 6.00 Build 0)  -->
<!DOCTYPE svg PUBLIC "-//W3C//DTD SVG 1.1//EN" "http://www.w3.org/Graphics/SVG/1.1/DTD/svg11.dtd">
<svg version="1.1" id="Capa_1" xmlns="http://www.w3.org/2000/svg" xmlns:xlink="http://www.w3.org/1999/xlink" x="0px" y="0px"
	 width="441.164px" height="441.164px" viewBox="0 0 441.164 441.164" style="enable-background:new 0 0 441.164 441.164;"
	 xml:space="preserve">
<g>
	<path d="M220.582,441.164c6.903,0,12.5-5.597,12.5-12.5s-5.598-12.5-12.5-12.5c-104.27,0-189.099-87.738-189.099-195.582
		S116.312,25,220.582,25s189.1,87.738,189.1,195.582c0,67.736-30.037,109.027-58.148,125.085
		c-13.99,7.992-28.035,9.798-36.654,4.715c-8.775-5.177-10.477-16.616-10.354-25.303c0-0.058,0-0.115,0-0.173V106.163
		c0-6.903-5.598-12.5-12.5-12.5s-12.5,5.597-12.5,12.5v37.494c-1.338-1.837-2.727-3.637-4.168-5.387
		c-18.773-22.77-43.943-35.309-70.876-35.309c-26.932,0-52.103,12.54-70.876,35.309c-18.198,22.07-28.22,51.269-28.22,82.217
		s10.021,60.146,28.22,82.217c18.773,22.771,43.944,35.31,70.876,35.31c26.933,0,52.103-12.541,70.876-35.31
		c1.441-1.75,2.83-3.55,4.168-5.388v27.505c-0.277,21.592,7.766,38.314,22.654,47.096c16.574,9.774,39.662,8.078,61.754-4.542
		c34.201-19.536,70.748-68.357,70.748-146.793c0-58.845-22.221-114.188-62.568-155.834C331.658,22.995,277.844,0,220.582,0
		C163.318,0,109.504,22.995,69.053,64.748c-40.349,41.646-62.57,96.989-62.57,155.834c0,58.846,22.221,114.188,62.569,155.834
		C109.504,418.169,163.318,441.164,220.582,441.164z M204.479,313.012c-40.856,0-74.096-41.507-74.096-92.525
		c0-51.02,33.239-92.526,74.096-92.526c40.856,0,74.097,41.507,74.097,92.526C278.576,271.505,245.336,313.012,204.479,313.012z"/>
</g>
<g>
</g>
<g>
</g>
<g>
</g>
<g>
</g>
<g>
</g>
<g>
</g>
<g>
</g>
<g>
</g>
<g>
</g>
<g>
</g>
<g>
</g>
<g>
</g>
<g>
</g>
<g>
</g>
<g>
</g>
</svg>
