<?xml version="1.0" encoding="UTF-8" standalone="no"?>
<!DOCTYPE svg PUBLIC "-//W3C//DTD SVG 1.1//EN" "http://www.w3.org/Graphics/SVG/1.1/DTD/svg11.dtd">
<svg version="1.1" xmlns="http://www.w3.org/2000/svg" xmlns:xlink="http://www.w3.org/1999/xlink" preserveAspectRatio="xMidYMid meet" viewBox="0 0 640 640" width="640" height="640"><defs><path d="M310.48 42.02L292.62 47.98L272.38 58.69L250.95 76.55L234.29 92.02L225.95 113.45L225.95 130.12L229.52 157.5L234.29 168.21L234.29 189.64L243.81 215.83L250.95 215.83L243.81 197.98L246.19 181.31L256.9 168.21L256.9 150.36L256.9 130.12L260.48 113.45L277.14 105.12L287.86 124.17L302.14 133.69L314.05 133.69L329.52 144.4L343.81 144.4L356.9 139.64L373.57 137.26L395 105.12L408.1 133.69L408.1 171.79L415.24 197.98L408.1 224.17L415.24 215.83L427.14 168.21L431.9 139.64L427.14 105.12L408.1 74.17L390.24 58.69L353.33 42.02L329.52 42.02L310.48 42.02Z" id="e47qpjguGt"></path><path d="M241.43 219.4L231.9 219.4L231.9 202.74C226.85 195.44 223.69 190.88 222.43 189.05C221.61 187.87 221.02 186.54 220.7 185.14C220.29 183.36 219.26 178.91 217.62 171.79L217.62 156.31L229.52 156.31" id="itRS30evl"></path><path d="M410.48 224.17L422.38 214.64L425.95 194.4L437.86 176.55L437.86 161.07L425.95 165.83L410.48 224.17Z" id="fgLzegJgk"></path><path d="M299.76 342.02L280.71 336.07L259.29 322.98L239.05 306.31L239.05 296.79L254.52 288.45L254.52 252.14" id="a2OC2dbgRL"></path><path d="M384.29 274.17L390.24 292.02L410.48 297.08L410.48 312.26L399.76 324.17L373.57 336.07" id="b1XyhJcQ0U"></path><path d="M608.1 388.45L589.05 372.98L553.33 353.93L540.24 347.98L498.57 342.02L462.86 324.17L437.86 306.31L410.48 297.08" id="bezbm2zsN"></path><path d="M46.19 371.79L58.1 371.79L83.1 356.58L115.24 340.28L149.76 337.02L196.19 310.95L221.19 291.4L253.33 284.88" id="b1PMFYIorm"></path><path d="M212.86 517.02L202.14 517.02L202.14 452.74L202.14 345.6L209.29 315.83" id="aMBK2B8b3"></path><path d="M272.38 517.02L261.67 345.6L272.38 517.02Z" id="b215WKXTX"></path><path d="M296.19 392.02L292.62 513.45L284.29 381.31L296.19 392.02Z" id="c3sNxUcHsG"></path><path d="M360.48 427.74L373.57 436.07L383.1 452.74L386.67 474.17L377.14 501.55L370 488.45L370 463.45L360.48 447.38L353.33 467.02L348.57 442.02L328.93 442.02L328.93 517.02L310.48 517.02L321.36 416.43L360.48 427.74Z" id="c7f3H1vAc"></path><path d="M320 416.43L310.48 440.83L304.52 431.31L299.76 392.02L320 416.43Z" id="b1onlVCBsJ"></path><path d="M437.86 440.83L424.17 440.83L404.52 451.55L386.67 481.31L379.52 497.98L392.02 517.02L452.14 521.79L485.48 488.45L499.76 451.55L477.14 431.31L452.14 421.79L437.86 440.83Z" id="c16p1Vvn1U"></path><path d="M600.95 412.26L600.95 431.31L580.71 451.55L517.62 471.79L499.76 456.31" id="a36eWro0nE"></path><path d="M550.36 508.69L539.05 494.4L545 477.74L562.86 477.74" id="a1l7oLpui"></path><path d="M395 517.02L379.52 521.79L379.52 494.4L395 517.02Z" id="e1lxZMY1hw"></path><path d="M452.14 349.17L437.86 395.6L456.9 412.26L443.81 407.5L456.9 375.36L456.9 336.07L439.64 315.83L452.14 349.17Z" id="a782hxwNbW"></path><path d="M431.9 350.36L415.24 371.79L421.19 356.31L424.17 332.5L431.9 350.36Z" id="c1LwmgN8AF"></path><path d="M439.64 336.07L431.9 325.36" id="awcZTL9yS"></path><path d="M410.48 381.31L406.9 364.05L415.24 342.02" id="b1N33h7grU"></path><path d="M550.95 458.69L530.71 466.73L580.71 407.5L580.71 388.45" id="bSzMnOjfQ"></path><path d="M516.43 466.73L534.29 447.38L550.36 388.45L530.71 392.02L542.62 361.67" id="b6n9L7RhCC"></path><path d="M530.71 401.55L516.43 431.31L516.43 376.55L484.29 437.26" id="c8SnZ141Vq"></path><path d="M159.29 521.79L143.81 517.02L143.81 471.79L149.76 431.31" id="aYVIE5RLO"></path><path d="M108.1 421.79L108.1 447.38L103.33 466.73L103.33 521.79L120 521.79L120 427.59L108.1 421.79Z" id="a39EyfSuAX"></path><path d="M98.57 406.9L79.52 450.36L74.76 427.59L83.1 399.17" id="evoMlunP8"></path><path d="M61.67 440.83L65.24 500.36L58.1 484.88L50.95 427.59L54.52 392.02" id="a1yHJ270Ud"></path><path d="M325.95 187.86L314.05 187.86L296.19 180.12L280.71 177.74L267.02 187.86L272.38 197.98L284.29 192.62L296.19 205.12L284.29 207.5L305.71 212.26L325.95 205.12L325.95 187.86Z" id="bAQ7iYzb"></path><path d="M373.57 202.74L373.57 212.26L353.33 207.5L353.33 219.4L366.43 244.4L331.31 257.5L331.31 244.4L348.57 234.88L343.81 207.5L336.67 182.5L348.57 187.86L361.67 182.5L373.57 182.5L386.67 177.74L406.9 182.5" id="e2468Q9NnJ"></path><path d="M267.13 268.21L280.93 281.31L296.83 292.02L290.53 305.12L300.13 320L314.53 320L329.52 328.33L300.13 330.71L307.33 345.6L267.13 311.07L253.33 284.88L256.93 252.14L267.13 268.21Z" id="gjdyp8Wob"></path><path d="M410.48 298.87L410.48 312.26L395 325.36L373.57 336.07L355.71 320L366.43 315.83L379.52 306.31L392.02 292.02L410.48 298.87Z" id="e1wKsh86Pc"></path><path d="M392.77 261.07L379.4 284.88L353.93 292.02L365.39 284.88L373.03 261.07L392.77 247.98L408.69 219.4L392.77 261.07Z" id="i18uPPG7Q"></path><path d="M269.4 255.71L280.71 270.6L299.76 274.17L299.76 261.07L284.29 255.71L269.4 243.21L269.4 255.71Z" id="ak1NAJXlM"></path><path d="M423.57 197.98L427.14 180.12L435.77 169.4L423.57 197.98Z" id="c4HBUCrPZ"></path><path d="M239.05 212.26L229.52 181.31L222.38 165.83" id="c1cTEFx1Dr"></path><path d="M230.71 186.55L222.38 177.62L222.38 166.9L230.71 186.55Z" id="a4XJF90yz"></path><path d="M325.95 410.21L348.57 412.26L322 388.45L299.76 381.31" id="aMsGxYVo"></path><path d="M386.67 451.31L406.9 433.93L398.57 430.36L389.67 439.29L378.33 433.93L386.67 451.31Z" id="frQOHJ9hd"></path><path d="M325.98 374.17L319.08 364.05L308.98 367.62L294.98 364.05L325.98 374.17Z" id="adQfkZrii"></path><path d="M341 355.21L331.31 345.6L310.48 347.08L341 355.21Z" id="d46W17CoOG"></path><path d="M298.86 345.6L284.41 350.4L288.41 364.05L277.58 381.31L293.4 388.45L318.83 416.43L357.21 427.59L372.85 437.26L380.24 451.31L383.96 480.21L405.05 450.36L423.04 442.02L439.17 437.26L451 421.79L408.77 376.55L372.85 336.07L332.2 305.12" id="gQ0YE4KLQ"></path><path d="M331.31 305.12L322.9 297.42L317 292.02L307 287.21L296.49 292.02L277.58 277.21L258 255.71L250 243.21L241.43 217.62L241.43 208.21" id="ajOgTqqEZ"></path><path d="M419.21 500.95L436.07 495L459.21 472.38L482.5 472.38L469.21 485.81L445.6 514.05L390.83 514.05L381.31 500.95L419.21 500.95Z" id="a1z81S7kQT"></path><path d="M420 451.31C426.14 449.28 429.98 448.02 431.52 447.51C431.78 447.42 432.04 447.37 432.31 447.34C434 447.19 438.23 446.81 445 446.19L454 458.21" id="c1Rbc4Py9"></path><path d="M383.1 280.01L368.36 287.19L343.53 296.84L322.57 297.08" id="boGu2zrpb"></path></defs><g><g><g><use xlink:href="#e47qpjguGt" opacity="1" fill="#151515" fill-opacity="1"></use><g><use xlink:href="#e47qpjguGt" opacity="1" fill-opacity="0" stroke="#000000" stroke-width="1" stroke-opacity="1"></use></g></g><g><g><use xlink:href="#itRS30evl" opacity="1" fill-opacity="0" stroke="#000000" stroke-width="3" stroke-opacity="1"></use></g></g><g><g><use xlink:href="#fgLzegJgk" opacity="1" fill-opacity="0" stroke="#000000" stroke-width="3" stroke-opacity="1"></use></g></g><g><g><use xlink:href="#a2OC2dbgRL" opacity="1" fill-opacity="0" stroke="#000000" stroke-width="3" stroke-opacity="1"></use></g></g><g><g><use xlink:href="#b1XyhJcQ0U" opacity="1" fill-opacity="0" stroke="#000000" stroke-width="3" stroke-opacity="1"></use></g></g><g><g><use xlink:href="#bezbm2zsN" opacity="1" fill-opacity="0" stroke="#000000" stroke-width="3" stroke-opacity="1"></use></g></g><g><g><use xlink:href="#b1PMFYIorm" opacity="1" fill-opacity="0" stroke="#000000" stroke-width="3" stroke-opacity="1"></use></g></g><g><use xlink:href="#aMBK2B8b3" opacity="1" fill="#151515" fill-opacity="1"></use><g><use xlink:href="#aMBK2B8b3" opacity="1" fill-opacity="0" stroke="#000000" stroke-width="1" stroke-opacity="1"></use></g></g><g><g><use xlink:href="#b215WKXTX" opacity="1" fill-opacity="0" stroke="#000000" stroke-width="3" stroke-opacity="1"></use></g></g><g><use xlink:href="#c3sNxUcHsG" opacity="1" fill="#151515" fill-opacity="1"></use><g><use xlink:href="#c3sNxUcHsG" opacity="1" fill-opacity="0" stroke="#000000" stroke-width="1" stroke-opacity="1"></use></g></g><g><use xlink:href="#c7f3H1vAc" opacity="1" fill="#151515" fill-opacity="1"></use><g><use xlink:href="#c7f3H1vAc" opacity="1" fill-opacity="0" stroke="#000000" stroke-width="1" stroke-opacity="1"></use></g></g><g><use xlink:href="#b1onlVCBsJ" opacity="1" fill="#151515" fill-opacity="1"></use><g><use xlink:href="#b1onlVCBsJ" opacity="1" fill-opacity="0" stroke="#000000" stroke-width="1" stroke-opacity="1"></use></g></g><g><g><use xlink:href="#c16p1Vvn1U" opacity="1" fill-opacity="0" stroke="#000000" stroke-width="3" stroke-opacity="1"></use></g></g><g><g><use xlink:href="#a36eWro0nE" opacity="1" fill-opacity="0" stroke="#000000" stroke-width="3" stroke-opacity="1"></use></g></g><g><use xlink:href="#a1l7oLpui" opacity="1" fill="#151515" fill-opacity="1"></use><g><use xlink:href="#a1l7oLpui" opacity="1" fill-opacity="0" stroke="#000000" stroke-width="1" stroke-opacity="1"></use></g></g><g><g><use xlink:href="#e1lxZMY1hw" opacity="1" fill-opacity="0" stroke="#000000" stroke-width="1" stroke-opacity="1"></use></g></g><g><use xlink:href="#a782hxwNbW" opacity="1" fill="#151515" fill-opacity="1"></use><g><use xlink:href="#a782hxwNbW" opacity="1" fill-opacity="0" stroke="#000000" stroke-width="1" stroke-opacity="1"></use></g></g><g><use xlink:href="#c1LwmgN8AF" opacity="1" fill="#151515" fill-opacity="1"></use><g><use xlink:href="#c1LwmgN8AF" opacity="1" fill-opacity="0" stroke="#000000" stroke-width="1" stroke-opacity="1"></use></g></g><g><g><use xlink:href="#awcZTL9yS" opacity="1" fill-opacity="0" stroke="#000000" stroke-width="1" stroke-opacity="1"></use></g></g><g><g><use xlink:href="#b1N33h7grU" opacity="1" fill-opacity="0" stroke="#000000" stroke-width="1" stroke-opacity="1"></use></g></g><g><use xlink:href="#bSzMnOjfQ" opacity="1" fill="#f19c4f" fill-opacity="0"></use><g><use xlink:href="#bSzMnOjfQ" opacity="1" fill-opacity="0" stroke="#000000" stroke-width="3" stroke-opacity="1"></use></g></g><g><use xlink:href="#b6n9L7RhCC" opacity="1" fill="#151515" fill-opacity="1"></use><g><use xlink:href="#b6n9L7RhCC" opacity="1" fill-opacity="0" stroke="#000000" stroke-width="1" stroke-opacity="1"></use></g></g><g><use xlink:href="#c8SnZ141Vq" opacity="1" fill="#151515" fill-opacity="0"></use><g><use xlink:href="#c8SnZ141Vq" opacity="1" fill-opacity="0" stroke="#000000" stroke-width="3" stroke-opacity="1"></use></g></g><g><use xlink:href="#aYVIE5RLO" opacity="1" fill="#151515" fill-opacity="1"></use><g><use xlink:href="#aYVIE5RLO" opacity="1" fill-opacity="0" stroke="#000000" stroke-width="1" stroke-opacity="1"></use></g></g><g><use xlink:href="#a39EyfSuAX" opacity="1" fill="#151515" fill-opacity="1"></use><g><use xlink:href="#a39EyfSuAX" opacity="1" fill-opacity="0" stroke="#000000" stroke-width="1" stroke-opacity="1"></use></g></g><g><use xlink:href="#evoMlunP8" opacity="1" fill="#151515" fill-opacity="1"></use><g><use xlink:href="#evoMlunP8" opacity="1" fill-opacity="0" stroke="#000000" stroke-width="1" stroke-opacity="1"></use></g></g><g><use xlink:href="#a1yHJ270Ud" opacity="1" fill="#151515" fill-opacity="1"></use><g><use xlink:href="#a1yHJ270Ud" opacity="1" fill-opacity="0" stroke="#000000" stroke-width="1" stroke-opacity="1"></use></g></g><g><use xlink:href="#bAQ7iYzb" opacity="1" fill="#151515" fill-opacity="1"></use><g><use xlink:href="#bAQ7iYzb" opacity="1" fill-opacity="0" stroke="#000000" stroke-width="1" stroke-opacity="1"></use></g></g><g><use xlink:href="#e2468Q9NnJ" opacity="1" fill="#151515" fill-opacity="1"></use><g><use xlink:href="#e2468Q9NnJ" opacity="1" fill-opacity="0" stroke="#000000" stroke-width="1" stroke-opacity="1"></use></g></g><g><use xlink:href="#gjdyp8Wob" opacity="1" fill="#151515" fill-opacity="1"></use><g><use xlink:href="#gjdyp8Wob" opacity="1" fill-opacity="0" stroke="#000000" stroke-width="1" stroke-opacity="1"></use></g></g><g><use xlink:href="#e1wKsh86Pc" opacity="1" fill="#151515" fill-opacity="1"></use><g><use xlink:href="#e1wKsh86Pc" opacity="1" fill-opacity="0" stroke="#000000" stroke-width="1" stroke-opacity="1"></use></g></g><g><use xlink:href="#i18uPPG7Q" opacity="1" fill="#151515" fill-opacity="1"></use><g><use xlink:href="#i18uPPG7Q" opacity="1" fill-opacity="0" stroke="#000000" stroke-width="1" stroke-opacity="1"></use></g></g><g><use xlink:href="#ak1NAJXlM" opacity="1" fill="#151515" fill-opacity="1"></use><g><use xlink:href="#ak1NAJXlM" opacity="1" fill-opacity="0" stroke="#000000" stroke-width="1" stroke-opacity="1"></use></g></g><g><use xlink:href="#c4HBUCrPZ" opacity="1" fill="#151515" fill-opacity="1"></use><g><use xlink:href="#c4HBUCrPZ" opacity="1" fill-opacity="0" stroke="#000000" stroke-width="1" stroke-opacity="1"></use></g></g><g><use xlink:href="#c1cTEFx1Dr" opacity="1" fill="#151515" fill-opacity="1"></use><g><use xlink:href="#c1cTEFx1Dr" opacity="1" fill-opacity="0" stroke="#000000" stroke-width="1" stroke-opacity="1"></use></g></g><g><use xlink:href="#a4XJF90yz" opacity="1" fill="#151515" fill-opacity="1"></use><g><use xlink:href="#a4XJF90yz" opacity="1" fill-opacity="0" stroke="#000000" stroke-width="1" stroke-opacity="1"></use></g></g><g><use xlink:href="#aMsGxYVo" opacity="1" fill="#151515" fill-opacity="1"></use><g><use xlink:href="#aMsGxYVo" opacity="1" fill-opacity="0" stroke="#000000" stroke-width="1" stroke-opacity="1"></use></g></g><g><use xlink:href="#frQOHJ9hd" opacity="1" fill="#151515" fill-opacity="1"></use><g><use xlink:href="#frQOHJ9hd" opacity="1" fill-opacity="0" stroke="#000000" stroke-width="1" stroke-opacity="1"></use></g></g><g><use xlink:href="#adQfkZrii" opacity="1" fill="#151515" fill-opacity="1"></use><g><use xlink:href="#adQfkZrii" opacity="1" fill-opacity="0" stroke="#000000" stroke-width="1" stroke-opacity="1"></use></g></g><g><use xlink:href="#d46W17CoOG" opacity="1" fill="#151515" fill-opacity="1"></use><g><use xlink:href="#d46W17CoOG" opacity="1" fill-opacity="0" stroke="#000000" stroke-width="1" stroke-opacity="1"></use></g></g><g><g><use xlink:href="#gQ0YE4KLQ" opacity="1" fill-opacity="0" stroke="#000000" stroke-width="3" stroke-opacity="1"></use></g></g><g><g><use xlink:href="#ajOgTqqEZ" opacity="1" fill-opacity="0" stroke="#000000" stroke-width="3" stroke-opacity="1"></use></g></g><g><use xlink:href="#a1z81S7kQT" opacity="1" fill="#151515" fill-opacity="1"></use><g><use xlink:href="#a1z81S7kQT" opacity="1" fill-opacity="0" stroke="#000000" stroke-width="1" stroke-opacity="1"></use></g></g><g><use xlink:href="#c1Rbc4Py9" opacity="1" fill="#151515" fill-opacity="1"></use><g><use xlink:href="#c1Rbc4Py9" opacity="1" fill-opacity="0" stroke="#000000" stroke-width="1" stroke-opacity="1"></use></g></g><g><g><use xlink:href="#boGu2zrpb" opacity="1" fill-opacity="0" stroke="#000000" stroke-width="3" stroke-opacity="1"></use></g></g></g></g></svg>