<?xml version="1.0" standalone="no"?>
<!DOCTYPE svg PUBLIC "-//W3C//DTD SVG 20010904//EN"
 "http://www.w3.org/TR/2001/REC-SVG-20010904/DTD/svg10.dtd">
<svg version="1.0" xmlns="http://www.w3.org/2000/svg"
 width="426.000000pt" height="421.000000pt" viewBox="0 0 426.000000 421.000000"
 preserveAspectRatio="xMidYMid meet">
<metadata>
Created by potrace 1.15, written by Peter Selinger 2001-2017
</metadata>
<g transform="translate(0.000000,421.000000) scale(0.100000,-0.100000)"
fill="#000000" stroke="none">
<path d="M935 4200 c517 -3 925 -6 906 -8 -72 -5 -286 -54 -403 -92 -150 -49
-370 -156 -501 -244 -475 -318 -802 -798 -912 -1340 -23 -116 -25 -143 -25
-426 0 -282 2 -311 25 -424 164 -810 801 -1457 1614 -1642 102 -23 121 -24
476 -24 354 0 374 1 476 24 301 69 585 203 842 398 105 81 301 279 386 391 71
95 159 234 204 322 110 219 195 509 215 734 4 48 9 -352 12 -894 4 -739 6
-462 8 1128 l2 2107 -2132 -2 c-1558 -2 -1880 -4 -1193 -8z m3314 -992 c-1
-625 -5 -960 -10 -903 -36 371 -186 749 -421 1062 -87 115 -273 303 -390 394
-285 220 -630 369 -983 423 -81 13 9 14 858 15 l947 1 -1 -992z m-3034 68 c83
-26 219 -92 309 -150 l52 -33 110 23 c276 58 562 58 838 0 l110 -23 52 33
c156 100 335 171 456 181 l66 6 28 -84 c37 -114 45 -299 17 -405 l-19 -71 49
-63 c164 -218 207 -519 122 -856 -95 -376 -368 -595 -817 -656 -49 -7 -88 -16
-88 -19 0 -4 11 -20 24 -36 39 -47 74 -125 90 -206 13 -61 16 -145 16 -415 0
-328 1 -340 21 -366 11 -14 28 -26 37 -27 32 -1 -32 -20 -146 -44 -302 -63
-618 -58 -928 16 l-90 21 28 28 28 28 0 217 0 217 -27 -6 c-16 -4 -86 -9 -158
-12 -152 -7 -232 7 -328 59 -95 50 -147 110 -211 239 -61 126 -113 194 -190
251 -111 83 -131 118 -78 138 107 42 291 -57 387 -207 106 -165 229 -232 404
-221 108 7 211 40 211 68 0 39 43 145 81 201 45 66 57 56 -99 83 -497 85 -752
358 -803 858 -26 260 24 468 158 647 l48 65 -17 65 c-33 127 -16 355 34 465
12 27 14 27 78 22 36 -3 101 -17 145 -31z"/>
</g>
</svg>
