<?xml version="1.0" ?><!DOCTYPE svg  PUBLIC '-//W3C//DTD SVG 1.1//EN'  'http://www.w3.org/Graphics/SVG/1.1/DTD/svg11.dtd'><svg enable-background="new 0 0 100 100" height="100px" id="Layer_1" version="1.1" viewBox="0 0 100 100" width="100px" xml:space="preserve" xmlns="http://www.w3.org/2000/svg" xmlns:xlink="http://www.w3.org/1999/xlink"><g><circle cx="50" cy="50" fill="#00E56B" r="45"/><g id="XMLID_110_"><g id="XMLID_111_"><path d="M43.031,66.248c0,1.186-0.868,1.723-1.93,1.191l-10.849-5.424     c-0.636-0.318-1.158-1.16-1.158-1.873V33.549c0-0.949,0.696-1.379,1.546-0.955l12.316,6.158c0.046,0.025,0.074,0.07,0.074,0.123     V66.248z" fill="#FFFFFF" id="XMLID_112_"/><g><polygon fill="#FFFFFF" points="43.975,40.523 43.975,55.035 56.873,61.484     "/></g><g><path d="M70.753,38.809l-12.627-6.312c-0.638-0.318-1.463-0.082-1.837,0.523l-7.965,12.941l9.114,14.809      l13.376-21.738C70.864,38.953,70.835,38.85,70.753,38.809z" fill="#FFFFFF"/></g><g><polygon fill="#FFFFFF" points="56.969,61.291 56.969,61.436 57.099,61.502     "/><path d="M57.896,61.9l10.693,5.348c1.277,0.639,2.314,0.191,2.314-1V40.762L57.896,61.9z" fill="#FFFFFF"/></g></g></g></g></svg>